<?xml version="1.0" encoding="UTF-8"?>
<svg xmlns="http://www.w3.org/2000/svg" xmlns:xlink="http://www.w3.org/1999/xlink" width="16px" height="16px" viewBox="0 0 16 16" version="1.1">
<g id="surface1">
<path style=" stroke:none;fill-rule:nonzero;fill:rgb(1.176471%,66.274512%,95.686275%);fill-opacity:1;" d="M 8 0 L 7.589844 0.328125 L 2.179688 4.527344 L 2.019531 4.671875 L 1.957031 4.878906 L 0.152344 11.492188 L 0.0078125 12.007812 L 8 16 L 15.992188 12.007812 L 15.847656 11.492188 L 14.042969 4.875 L 13.980469 4.667969 L 13.820312 4.523438 L 8.410156 0.328125 Z M 7.34375 2.191406 L 7.34375 4.117188 L 4.867188 4.117188 Z M 8.65625 2.191406 L 11.132812 4.117188 L 8.65625 4.117188 Z M 3.453125 5.429688 L 6.6875 5.429688 L 4.335938 8.5625 Z M 9.3125 5.429688 L 12.550781 5.429688 L 11.664062 8.5625 Z M 8 5.878906 L 10.621094 9.359375 L 5.378906 9.359375 Z M 2.632812 7.398438 L 3.289062 9.691406 L 1.8125 10.429688 Z M 13.367188 7.398438 L 14.1875 10.429688 L 12.710938 9.691406 Z M 5.378906 10.675781 L 10.621094 10.675781 L 8 14.15625 Z M 3.863281 10.859375 L 5.789062 13.417969 L 2.261719 11.65625 Z M 12.136719 10.859375 L 13.734375 11.660156 L 10.210938 13.421875 Z M 12.136719 10.859375 "/>
</g>
</svg>
