<?xml version="1.0" encoding="UTF-8"?>
<svg xmlns="http://www.w3.org/2000/svg" xmlns:xlink="http://www.w3.org/1999/xlink" width="16px" height="16px" viewBox="0 0 16 16" version="1.1">
<g id="surface1">
<path style=" stroke:none;fill-rule:nonzero;fill:rgb(1.176471%,66.274512%,95.686275%);fill-opacity:1;" d="M 8 0.550781 C 7.898438 0.511719 7.785156 0.5 7.679688 0.519531 C 6.867188 0.65625 6.039062 1.058594 5.289062 1.53125 C 4.535156 2.007812 3.820312 2.578125 3.234375 3.109375 C 2.78125 3.515625 2.398438 3.902344 2.125 4.207031 L 2.105469 4.226562 C 2.027344 4.320312 1.894531 4.460938 1.726562 4.636719 L 1.574219 4.796875 C 1.363281 5.019531 1.113281 5.289062 0.96875 5.492188 C 0.65625 5.9375 0.355469 6.414062 0.0742188 6.925781 C -0.0078125 7.078125 -0.0234375 7.257812 0.03125 7.417969 C 0.773438 9.609375 3.078125 11.617188 5.78125 13.0625 C 8.511719 14.523438 11.796875 15.488281 14.695312 15.488281 L 15.382812 15.488281 C 15.722656 15.488281 16 15.214844 16 14.875 L 16 12.574219 C 16 11.71875 15.515625 10.9375 14.75 10.554688 L 12.792969 9.574219 C 12.464844 9.175781 12.082031 8.601562 11.765625 7.988281 C 11.457031 7.394531 11.242188 6.820312 11.171875 6.367188 L 11.617188 5.632812 C 12.003906 5 12.578125 4.503906 13.261719 4.222656 L 13.96875 3.925781 C 14.203125 3.828125 14.351562 3.601562 14.347656 3.347656 C 14.34375 3.09375 14.183594 2.871094 13.949219 2.78125 Z M 14.769531 12.585938 C 13.46875 12.414062 12.917969 12.257812 11.878906 11.957031 L 12.613281 10.859375 L 14.199219 11.652344 C 14.550781 11.828125 14.769531 12.183594 14.769531 12.574219 Z M 11.480469 13.125 C 12.625 13.453125 13.230469 13.628906 14.769531 13.824219 L 14.769531 14.257812 L 14.695312 14.257812 C 12.042969 14.257812 8.953125 13.363281 6.363281 11.976562 C 3.867188 10.644531 1.972656 8.933594 1.292969 7.273438 C 1.363281 7.148438 1.433594 7.027344 1.507812 6.90625 C 2.207031 7.742188 3.28125 8.773438 4.730469 9.832031 C 5.917969 10.699219 6.871094 11.300781 8.582031 12.113281 L 8.632812 12.136719 L 10.6875 12.894531 L 10.734375 12.910156 C 11.011719 12.988281 11.253906 13.058594 11.480469 13.125 Z M 6.15625 5.773438 L 4.492188 3.644531 C 4.941406 3.269531 5.4375 2.890625 5.945312 2.570312 C 6.574219 2.175781 7.1875 1.886719 7.730469 1.761719 L 12.136719 3.417969 C 11.5 3.808594 10.957031 4.347656 10.566406 4.996094 L 10.296875 5.4375 L 8.042969 4.394531 C 7.8125 4.289062 7.542969 4.332031 7.359375 4.503906 C 7.175781 4.679688 7.117188 4.945312 7.210938 5.179688 L 8.980469 9.640625 L 8.527344 10.71875 C 7.382812 10.148438 6.621094 9.671875 5.765625 9.0625 L 6.277344 6.261719 C 6.308594 6.089844 6.265625 5.910156 6.15625 5.773438 Z M 6.15625 5.773438 "/>
</g>
</svg>
