<?xml version="1.0" encoding="UTF-8"?>
<svg xmlns="http://www.w3.org/2000/svg" xmlns:xlink="http://www.w3.org/1999/xlink" width="16px" height="16px" viewBox="0 0 16 16" version="1.1">
<g id="surface1">
<path style=" stroke:none;fill-rule:nonzero;fill:rgb(93.72549%,36.862745%,4.705882%);fill-opacity:1;" d="M 6.546875 16 L 9.453125 16 C 9.855469 16 10.179688 15.675781 10.179688 15.273438 C 10.179688 14.871094 9.855469 14.546875 9.453125 14.546875 L 6.546875 14.546875 C 6.144531 14.546875 5.816406 14.871094 5.816406 15.273438 C 5.816406 15.675781 6.144531 16 6.546875 16 Z M 2.910156 5.816406 L 3.636719 5.816406 C 3.636719 4.609375 4.125 3.523438 4.914062 2.734375 C 5.707031 1.941406 6.792969 1.453125 8 1.453125 C 9.207031 1.453125 10.292969 1.941406 11.085938 2.734375 C 11.875 3.523438 12.363281 4.609375 12.363281 5.816406 C 12.363281 7.300781 11.625 8.601562 10.492188 9.390625 C 10.339844 9.5 10.234375 9.65625 10.199219 9.839844 L 9.804688 11.703125 L 9.796875 11.746094 C 9.742188 12.101562 9.4375 12.363281 9.078125 12.363281 L 6.921875 12.363281 C 6.5625 12.363281 6.257812 12.101562 6.203125 11.746094 L 6.195312 11.703125 L 5.800781 9.847656 C 5.765625 9.664062 5.660156 9.507812 5.507812 9.398438 C 4.375 8.609375 3.636719 7.304688 3.636719 5.820312 L 2.183594 5.820312 C 2.183594 7.792969 3.167969 9.542969 4.675781 10.59375 L 5.089844 9.996094 L 4.378906 10.148438 L 4.773438 12.007812 L 5.484375 11.855469 L 4.765625 11.964844 C 4.929688 13.03125 5.84375 13.816406 6.921875 13.820312 L 9.078125 13.820312 C 10.15625 13.816406 11.070312 13.03125 11.234375 11.964844 L 10.515625 11.855469 L 11.226562 12.003906 L 11.621094 10.140625 L 10.910156 9.988281 L 11.324219 10.585938 C 12.828125 9.539062 13.820312 7.792969 13.820312 5.820312 C 13.816406 2.605469 11.214844 0 8 0 C 4.785156 0 2.183594 2.605469 2.183594 5.816406 Z M 2.910156 5.816406 "/>
<path style=" stroke:none;fill-rule:nonzero;fill:rgb(93.72549%,36.862745%,4.705882%);fill-opacity:1;" d="M 5.089844 10.910156 L 10.910156 10.910156 C 11.3125 10.910156 11.636719 10.582031 11.636719 10.183594 C 11.636719 9.78125 11.3125 9.453125 10.910156 9.453125 L 5.089844 9.453125 C 4.6875 9.453125 4.363281 9.78125 4.363281 10.183594 C 4.363281 10.582031 4.6875 10.910156 5.089844 10.910156 "/>
</g>
</svg>
