<?xml version="1.0" encoding="UTF-8"?>
<svg xmlns="http://www.w3.org/2000/svg" xmlns:xlink="http://www.w3.org/1999/xlink" width="16px" height="16px" viewBox="0 0 16 16" version="1.1">
<g id="surface1">
<path style=" stroke:none;fill-rule:nonzero;fill:rgb(95.686275%,61.176471%,21.176471%);fill-opacity:1;" d="M 0.800781 12.800781 L 4.800781 12.800781 C 5.0625 12.800781 5.304688 12.671875 5.457031 12.457031 L 6.792969 10.550781 C 7.042969 10.1875 6.957031 9.6875 6.59375 9.4375 C 6.234375 9.183594 5.734375 9.269531 5.480469 9.632812 L 4.382812 11.199219 L 0.800781 11.199219 C 0.359375 11.199219 0 11.558594 0 12 C 0 12.441406 0.359375 12.800781 0.800781 12.800781 Z M 9.71875 6.367188 L 10.816406 4.800781 L 15.199219 4.800781 C 15.640625 4.800781 16 4.441406 16 4 C 16 3.558594 15.640625 3.199219 15.199219 3.199219 L 10.398438 3.199219 C 10.136719 3.199219 9.894531 3.328125 9.746094 3.542969 L 8.410156 5.449219 C 8.15625 5.8125 8.242188 6.3125 8.605469 6.566406 C 8.96875 6.820312 9.464844 6.730469 9.71875 6.367188 Z M 9.71875 6.367188 "/>
<path style=" stroke:none;fill-rule:nonzero;fill:rgb(95.686275%,61.176471%,21.176471%);fill-opacity:1;" d="M 12.234375 2.164062 L 14.070312 4 L 12.234375 5.835938 C 11.921875 6.148438 11.921875 6.652344 12.234375 6.964844 C 12.546875 7.277344 13.054688 7.277344 13.367188 6.964844 L 15.765625 4.566406 C 15.914062 4.417969 16 4.210938 16 4 C 16 3.789062 15.914062 3.582031 15.765625 3.433594 L 13.367188 1.035156 C 13.054688 0.722656 12.546875 0.722656 12.234375 1.035156 C 11.921875 1.347656 11.921875 1.851562 12.234375 2.164062 Z M 12.234375 2.164062 "/>
<path style=" stroke:none;fill-rule:nonzero;fill:rgb(95.686275%,61.176471%,21.176471%);fill-opacity:1;" d="M 0.800781 4.800781 L 4.382812 4.800781 L 9.746094 12.457031 C 9.894531 12.671875 10.136719 12.800781 10.398438 12.800781 L 15.199219 12.800781 C 15.640625 12.800781 16 12.441406 16 12 C 16 11.558594 15.640625 11.199219 15.199219 11.199219 L 10.816406 11.199219 L 5.457031 3.542969 C 5.304688 3.328125 5.0625 3.199219 4.800781 3.199219 L 0.800781 3.199219 C 0.359375 3.199219 0 3.558594 0 4 C 0 4.441406 0.359375 4.800781 0.800781 4.800781 Z M 0.800781 4.800781 "/>
<path style=" stroke:none;fill-rule:nonzero;fill:rgb(95.686275%,61.176471%,21.176471%);fill-opacity:1;" d="M 13.367188 14.964844 L 15.765625 12.566406 C 15.914062 12.417969 16 12.210938 16 12 C 16 11.789062 15.914062 11.582031 15.765625 11.433594 L 13.367188 9.035156 C 13.054688 8.722656 12.546875 8.722656 12.234375 9.035156 C 11.921875 9.347656 11.921875 9.851562 12.234375 10.164062 L 14.070312 12 L 12.234375 13.835938 C 11.921875 14.148438 11.921875 14.652344 12.234375 14.964844 C 12.546875 15.277344 13.054688 15.277344 13.367188 14.964844 Z M 13.367188 14.964844 "/>
</g>
</svg>
