<?xml version="1.0" encoding="UTF-8"?>
<svg xmlns="http://www.w3.org/2000/svg" xmlns:xlink="http://www.w3.org/1999/xlink" width="16px" height="16px" viewBox="0 0 16 16" version="1.1">
<g id="surface1">
<path style=" stroke:none;fill-rule:evenodd;fill:rgb(95.686275%,26.274511%,21.176471%);fill-opacity:1;" d="M 12.164062 0.703125 C 11.40625 1.144531 10.644531 1.773438 9.878906 2.53125 L 13.457031 6.101562 C 14.144531 5.539062 14.660156 4.964844 15.046875 4.378906 C 16.140625 2.722656 16.03125 1.847656 15.953125 0.015625 C 14.40625 0.015625 13.578125 -0.117188 12.164062 0.703125 Z M 1.136719 11.304688 L 1.175781 11.34375 L 2.175781 10.339844 L 2.039062 10.203125 C 1.773438 9.941406 1.773438 9.511719 2.039062 9.246094 L 7.8125 3.484375 C 8.078125 3.222656 8.507812 3.222656 8.769531 3.484375 L 12.535156 7.242188 C 12.796875 7.503906 12.796875 7.933594 12.535156 8.195312 L 6.757812 13.960938 C 6.496094 14.222656 6.066406 14.222656 5.800781 13.960938 L 5.664062 13.820312 L 4.660156 14.820312 L 4.699219 14.859375 C 4.957031 15.117188 4.957031 15.542969 4.699219 15.800781 C 4.441406 16.058594 4.015625 16.058594 3.757812 15.800781 L 0.195312 12.242188 C -0.0664062 11.984375 -0.0664062 11.5625 0.195312 11.304688 C 0.453125 11.046875 0.875 11.046875 1.136719 11.304688 Z M 1.136719 11.304688 "/>
</g>
</svg>
