<?xml version="1.0" encoding="UTF-8"?>
<svg xmlns="http://www.w3.org/2000/svg" xmlns:xlink="http://www.w3.org/1999/xlink" width="16px" height="16px" viewBox="0 0 16 16" version="1.1">
<g id="surface1">
<path style=" stroke:none;fill-rule:nonzero;fill:rgb(95.686275%,26.274511%,21.176471%);fill-opacity:1;" d="M 15.589844 7.007812 L 8.992188 0.410156 C 8.714844 0.136719 8.359375 0 8 0 C 7.640625 0 7.285156 0.136719 7.007812 0.410156 L 0.410156 7.007812 C -0.136719 7.554688 -0.136719 8.445312 0.410156 8.992188 L 7.007812 15.585938 C 7.28125 15.863281 7.636719 15.996094 7.996094 15.996094 C 8.355469 15.996094 8.710938 15.859375 8.988281 15.585938 L 15.585938 8.992188 C 16.136719 8.445312 16.136719 7.554688 15.589844 7.007812 Z M 11.503906 10.804688 C 11.324219 10.804688 11.144531 10.734375 11.007812 10.597656 C 10.730469 10.320312 10.730469 9.882812 11.007812 9.605469 L 11.914062 8.699219 L 8.699219 8.699219 L 8.699219 11.914062 L 9.605469 11.007812 C 9.742188 10.871094 9.921875 10.804688 10.101562 10.804688 C 10.28125 10.804688 10.460938 10.871094 10.601562 11.007812 C 10.875 11.285156 10.875 11.726562 10.601562 12 L 8 14.597656 L 5.402344 12 C 5.128906 11.726562 5.128906 11.285156 5.402344 11.007812 C 5.539062 10.871094 5.71875 10.804688 5.898438 10.804688 C 6.078125 10.804688 6.257812 10.871094 6.398438 11.007812 L 7.304688 11.914062 L 7.304688 8.699219 L 4.085938 8.699219 L 4.992188 9.605469 C 5.265625 9.882812 5.265625 10.320312 4.992188 10.597656 C 4.851562 10.734375 4.675781 10.804688 4.492188 10.804688 C 4.316406 10.804688 4.132812 10.734375 3.996094 10.597656 L 1.402344 8 L 4 5.402344 C 4.136719 5.265625 4.316406 5.195312 4.496094 5.195312 C 4.675781 5.195312 4.855469 5.265625 4.992188 5.402344 C 5.269531 5.679688 5.269531 6.117188 4.992188 6.394531 L 4.085938 7.300781 L 7.304688 7.300781 L 7.304688 4.085938 L 6.398438 4.992188 C 6.257812 5.128906 6.082031 5.195312 5.898438 5.195312 C 5.722656 5.195312 5.539062 5.128906 5.402344 4.992188 C 5.128906 4.714844 5.128906 4.273438 5.402344 4 L 8 1.402344 L 10.597656 4 C 10.871094 4.273438 10.871094 4.714844 10.597656 4.992188 C 10.460938 5.128906 10.28125 5.195312 10.101562 5.195312 C 9.921875 5.195312 9.742188 5.128906 9.601562 4.992188 L 8.695312 4.085938 L 8.695312 7.300781 L 11.914062 7.300781 L 11.007812 6.394531 C 10.730469 6.117188 10.730469 5.679688 11.007812 5.402344 C 11.144531 5.265625 11.320312 5.195312 11.503906 5.195312 C 11.683594 5.195312 11.863281 5.265625 12 5.402344 L 14.597656 8 L 12 10.597656 C 11.863281 10.734375 11.683594 10.804688 11.503906 10.804688 Z M 10.289062 9.402344 C 10.167969 9.613281 10.101562 9.851562 10.101562 10.101562 C 9.851562 10.101562 9.613281 10.167969 9.402344 10.289062 L 9.402344 9.402344 Z M 5.710938 9.402344 L 6.597656 9.402344 L 6.597656 10.289062 C 6.386719 10.167969 6.148438 10.101562 5.898438 10.101562 C 5.898438 9.851562 5.832031 9.613281 5.710938 9.402344 Z M 5.710938 6.597656 C 5.832031 6.386719 5.898438 6.148438 5.898438 5.898438 C 6.148438 5.898438 6.386719 5.832031 6.597656 5.710938 L 6.597656 6.597656 Z M 10.289062 6.597656 L 9.402344 6.597656 L 9.402344 5.710938 C 9.613281 5.832031 9.851562 5.898438 10.101562 5.898438 C 10.101562 6.148438 10.167969 6.386719 10.289062 6.597656 Z M 10.289062 6.597656 "/>
</g>
</svg>
