<?xml version="1.0" encoding="UTF-8"?>
<svg xmlns="http://www.w3.org/2000/svg" xmlns:xlink="http://www.w3.org/1999/xlink" width="16px" height="16px" viewBox="0 0 16 16" version="1.1">
<g id="surface1">
<path style=" stroke:none;fill-rule:nonzero;fill:rgb(95.686275%,26.274511%,21.176471%);fill-opacity:1;" d="M 4.734375 0.554688 C 4.585938 0.140625 4.128906 -0.0742188 3.714844 0.078125 C 3.300781 0.226562 3.085938 0.683594 3.234375 1.097656 L 5.027344 6.066406 C 5.140625 6.375 4.949219 6.714844 4.625 6.78125 C 4.367188 6.832031 4.109375 6.691406 4.015625 6.445312 L 2.335938 2.132812 C 2.175781 1.722656 1.714844 1.519531 1.304688 1.675781 C 0.894531 1.835938 0.691406 2.296875 0.851562 2.707031 L 3.367188 9.183594 C 2.011719 9.035156 1.042969 9.382812 0.460938 9.714844 C 0.117188 9.910156 -0.0390625 10.269531 0.0078125 10.621094 C 0.0546875 10.953125 0.277344 11.230469 0.589844 11.367188 C 1.652344 11.832031 4.085938 13.03125 6.164062 15.015625 C 6.984375 15.796875 8.175781 16.191406 9.324219 15.847656 L 11.554688 15.179688 C 12.21875 14.980469 12.769531 14.472656 12.96875 13.773438 C 13.207031 12.9375 13.546875 11.527344 13.546875 10.191406 C 13.546875 9.273438 13.226562 8.128906 12.933594 7.265625 C 12.355469 5.554688 11.707031 3.867188 11.113281 2.160156 C 10.96875 1.742188 10.515625 1.523438 10.097656 1.667969 C 9.683594 1.8125 9.464844 2.265625 9.609375 2.679688 L 10.398438 4.964844 C 10.511719 5.285156 10.3125 5.628906 9.980469 5.695312 C 9.710938 5.75 9.4375 5.597656 9.34375 5.335938 L 7.921875 1.355469 C 7.773438 0.941406 7.320312 0.722656 6.90625 0.871094 C 6.488281 1.019531 6.273438 1.476562 6.421875 1.890625 L 7.710938 5.503906 C 7.828125 5.824219 7.628906 6.171875 7.296875 6.238281 C 7.023438 6.296875 6.75 6.140625 6.65625 5.882812 Z M 13.257812 0.285156 C 13.445312 0.015625 13.816406 -0.0507812 14.089844 0.136719 C 14.734375 0.582031 15.265625 1.367188 15.601562 2.230469 C 15.9375 3.101562 16.101562 4.128906 15.929688 5.113281 C 15.875 5.4375 15.5625 5.65625 15.238281 5.597656 C 14.914062 5.542969 14.695312 5.230469 14.753906 4.90625 C 14.878906 4.179688 14.761719 3.375 14.488281 2.660156 C 14.207031 1.941406 13.792969 1.386719 13.40625 1.117188 C 13.136719 0.929688 13.070312 0.558594 13.257812 0.285156 Z M 12.988281 1.8125 C 12.765625 1.570312 12.386719 1.558594 12.144531 1.785156 C 11.902344 2.007812 11.890625 2.386719 12.117188 2.628906 C 12.449219 2.984375 12.75 3.417969 12.75 4.214844 C 12.75 4.542969 13.019531 4.8125 13.351562 4.8125 C 13.679688 4.8125 13.949219 4.542969 13.949219 4.214844 C 13.945312 3.015625 13.449219 2.308594 12.988281 1.8125 Z M 12.988281 1.8125 "/>
</g>
</svg>
