<?xml version="1.0" encoding="UTF-8"?>
<svg xmlns="http://www.w3.org/2000/svg" xmlns:xlink="http://www.w3.org/1999/xlink" width="128px" height="128px" viewBox="0 0 128 128" version="1.1">
<g id="surface1">
<path style=" stroke:none;fill-rule:nonzero;fill:rgb(24.705882%,31.764707%,70.980394%);fill-opacity:1;" d="M 124.050781 41.125 C 121.5 33.699219 117.773438 27.425781 113.824219 23.476562 C 113.125 22.773438 111.976562 22.324219 110.800781 22.324219 C 109.648438 22.324219 108.699219 22.800781 107.773438 23.476562 C 106.148438 25.101562 106.148438 27.898438 107.773438 29.523438 C 110.800781 32.550781 113.824219 37.898438 115.898438 44.398438 C 118.226562 50.898438 119.375 57.875 119.375 63.675781 C 119.375 64.601562 119.375 66 119.375 66.699219 C 119.375 67.851562 119.601562 68.800781 120.523438 69.726562 C 121.226562 70.648438 122.375 71.125 123.550781 71.125 L 123.773438 71.125 C 126.101562 71.125 127.949219 69.273438 127.949219 67.175781 C 127.949219 66.25 127.949219 64.625 127.949219 63.699219 C 128 56.675781 126.601562 48.550781 124.050781 41.125 Z M 29.5 19.273438 C 30.425781 19.273438 31.125 19.050781 32.050781 18.574219 C 41.351562 12.074219 52.5 8.574219 64.351562 8.574219 C 76.898438 8.574219 88.976562 13.226562 99.199219 21.824219 C 99.898438 22.523438 100.824219 22.75 102 22.75 C 103.148438 22.75 104.324219 22.273438 105.25 21.351562 C 106.648438 19.5 106.398438 16.925781 104.773438 15.300781 C 92.925781 5.550781 79 0.199219 64.351562 0.199219 C 50.648438 0.199219 37.875 4.148438 27.175781 11.824219 C 26.25 12.523438 25.773438 13.449219 25.550781 14.625 C 25.324219 15.800781 25.550781 16.949219 26.25 17.648438 C 26.726562 18.574219 28.101562 19.273438 29.5 19.273438 Z M 8.601562 63.648438 C 8.601562 50.175781 13.476562 37.398438 22.300781 27.175781 C 23 26.25 23.449219 25.324219 23.226562 24.148438 C 23.226562 23 22.523438 22.050781 21.824219 21.351562 C 21.125 20.648438 19.976562 20.425781 19.023438 20.425781 C 17.875 20.425781 16.699219 20.898438 15.773438 21.824219 C 5.574219 33.449219 0 48.324219 0 63.875 C 0 73.875 1.851562 82 4.648438 91.523438 C 5.125 93.375 6.75 94.550781 8.601562 94.550781 C 9.074219 94.550781 9.523438 94.550781 9.75 94.324219 C 10.898438 94.101562 11.601562 93.398438 12.300781 92.226562 C 12.773438 91.300781 13 90.125 12.523438 88.976562 C 10.226562 79.925781 8.601562 72.699219 8.601562 63.648438 Z M 8.601562 63.648438 "/>
<path style=" stroke:none;fill-rule:nonzero;fill:rgb(24.705882%,31.764707%,70.980394%);fill-opacity:1;" d="M 94.773438 25.101562 C 86.398438 17.898438 76.199219 13.949219 65.050781 13.949219 C 50.175781 13.949219 36.949219 19.523438 27.648438 29.273438 C 18.824219 38.800781 14.398438 51.351562 15.351562 64.574219 C 16.050781 74.574219 17.199219 80.148438 18.148438 85.023438 C 19.550781 91.523438 20.476562 96.648438 19.773438 110.800781 C 19.550781 112.898438 20.925781 114.75 22.800781 115.226562 C 23.273438 115.449219 23.5 115.449219 23.949219 115.449219 C 26.273438 115.449219 27.898438 113.601562 28.125 111.5 C 29.050781 95.925781 27.898438 90.351562 26.5 83.148438 C 25.574219 78.5 24.398438 73.148438 23.699219 63.875 C 23 52.949219 26.5 42.5 33.699219 34.824219 C 41.375 26.699219 52.523438 22.050781 64.824219 22.050781 C 73.875 22.050781 82.25 25.074219 88.976562 31.101562 C 95.699219 37.148438 101.050781 45.726562 104.074219 55.949219 C 107.550781 68.023438 108.5 83.351562 106.875 100.324219 C 106.648438 102.648438 108.273438 104.75 110.601562 104.976562 C 110.824219 104.976562 110.824219 104.976562 111.074219 104.976562 C 113.175781 104.976562 115.023438 103.351562 115.25 101.25 C 117.101562 83.125 115.949219 66.875 112.226562 53.625 C 108.949219 42.050781 102.898438 32.050781 94.773438 25.101562 Z M 94.773438 25.101562 "/>
<path style=" stroke:none;fill-rule:nonzero;fill:rgb(24.705882%,31.764707%,70.980394%);fill-opacity:1;" d="M 100.125 67.375 C 98.273438 55.75 94.074219 46.226562 87.574219 39.5 C 81.074219 32.773438 72.949219 29.050781 63.875 29.050781 C 58.074219 29.050781 52.25 30.199219 47.148438 32.773438 C 46 33.25 45.300781 34.398438 44.824219 35.574219 C 44.601562 36.726562 44.824219 38.125 45.523438 39.050781 C 46.226562 39.976562 47.625 40.675781 48.773438 40.675781 C 49.476562 40.675781 49.925781 40.449219 50.625 40.199219 C 54.574219 38.351562 59 37.398438 63.625 37.398438 C 70.601562 37.398438 76.625 40.199219 81.5 45.523438 C 86.375 51.101562 89.875 59 91.25 68.523438 C 92.648438 77.574219 93.351562 85.023438 93.351562 91.050781 C 93.351562 103.351562 91.949219 113.351562 91.949219 113.574219 C 91.726562 114.726562 91.949219 115.898438 92.648438 116.601562 C 93.351562 117.523438 94.273438 118 95.449219 118.226562 C 95.675781 118.226562 95.925781 118.226562 96.148438 118.226562 C 98.25 118.226562 100.101562 116.824219 100.324219 114.75 C 100.324219 114.273438 101.949219 103.824219 101.949219 91.050781 C 102.449219 84.550781 101.75 76.898438 100.125 67.375 Z M 42.5 47.851562 C 43.648438 46 43.425781 43.675781 41.800781 42.273438 C 41.101562 41.574219 40.175781 41.351562 39 41.351562 C 37.601562 41.351562 36.199219 42.050781 35.523438 43.199219 C 31.101562 49.699219 29.476562 58.300781 31.101562 67.824219 C 33.898438 83.625 36.199219 101.976562 33.898438 118.476562 C 33.675781 119.625 34.125 120.800781 34.824219 121.726562 C 35.523438 122.648438 36.675781 123.125 37.625 123.351562 C 37.851562 123.351562 37.851562 123.351562 38.101562 123.351562 C 40.199219 123.351562 42.050781 121.726562 42.273438 119.625 C 44.824219 101.976562 42.273438 82.699219 39.25 66.199219 C 38.101562 58.773438 39.023438 52.5 42.5 47.851562 Z M 82.925781 104.523438 C 80.375 104.523438 78.5 106.625 78.75 108.949219 C 78.75 108.949219 78.976562 114.523438 78.050781 119.625 C 77.574219 121.726562 78.75 123.800781 80.851562 124.5 C 81.324219 124.726562 81.773438 124.726562 82.25 124.726562 C 84.351562 124.726562 85.976562 123.324219 86.425781 121.25 C 87.574219 114.976562 87.351562 108.949219 87.351562 108.699219 C 87.125 106.175781 85.25 104.523438 82.925781 104.523438 Z M 82.925781 104.523438 "/>
<path style=" stroke:none;fill-rule:nonzero;fill:rgb(24.705882%,31.764707%,70.980394%);fill-opacity:1;" d="M 75.976562 48.550781 C 72.5 45.300781 68.300781 43.675781 63.425781 43.675781 C 57.375 43.675781 52.050781 46 48.800781 49.949219 C 46.25 52.976562 43.699219 58.773438 45.550781 68.300781 C 49.273438 87.574219 50.199219 105.699219 48.101562 122.199219 C 47.875 124.523438 49.5 126.625 51.824219 126.851562 C 52.050781 126.851562 52.300781 126.851562 52.300781 126.851562 C 54.398438 126.851562 56.25 125.226562 56.476562 123.125 C 58.800781 105.699219 57.875 86.648438 53.925781 66.449219 C 53 61.351562 53.449219 57.398438 55.550781 55.074219 C 57.175781 52.976562 60.199219 51.824219 63.675781 51.824219 C 71.351562 51.824219 74.351562 60.199219 75.523438 63.898438 C 77.625 71.800781 78.773438 83.175781 79 96.875 C 79 99.199219 80.851562 101.050781 83.175781 101.050781 C 84.324219 101.050781 85.273438 100.574219 86.199219 99.898438 C 86.898438 99.199219 87.351562 98.050781 87.351562 96.875 C 87.125 82.476562 85.726562 70.398438 83.398438 61.800781 C 81.773438 56.226562 79.449219 51.800781 75.976562 48.550781 Z M 75.976562 48.550781 "/>
<path style=" stroke:none;fill-rule:nonzero;fill:rgb(24.705882%,31.764707%,70.980394%);fill-opacity:1;" d="M 66.898438 60.875 C 66.199219 59.25 64.800781 58.324219 62.949219 58.324219 C 62.476562 58.324219 61.800781 58.550781 61.324219 58.550781 C 59.226562 59.476562 58.074219 61.800781 59 64.125 C 61.101562 69 62.726562 78.300781 63.425781 89.449219 C 64.125 100.824219 63.898438 113.148438 62.726562 123.125 C 62.5 124.273438 62.949219 125.449219 63.648438 126.148438 C 64.351562 127.074219 65.273438 127.550781 66.449219 127.773438 C 66.675781 127.773438 66.675781 127.773438 66.925781 127.773438 C 69.023438 127.773438 70.875 126.148438 71.101562 124.050781 C 72.25 113.125 72.5 100.574219 71.800781 88.5 C 71.074219 76.425781 69.226562 66.449219 66.898438 60.875 Z M 66.898438 60.875 "/>
</g>
</svg>
