<?xml version="1.0" encoding="UTF-8"?>
<svg xmlns="http://www.w3.org/2000/svg" xmlns:xlink="http://www.w3.org/1999/xlink" width="128px" height="128px" viewBox="0 0 128 128" version="1.1">
<g id="surface1">
<path style=" stroke:none;fill-rule:nonzero;fill:rgb(47.843137%,72.549021%,90.980393%);fill-opacity:1;" d="M 125.792969 13.976562 L 125.792969 102.253906 L 84.597656 114.023438 L 43.402344 102.253906 L 2.207031 114.023438 L 2.207031 25.746094 L 43.402344 13.976562 L 84.597656 25.746094 Z M 125.792969 13.976562 "/>
<path style=" stroke:none;fill-rule:nonzero;fill:rgb(38.039216%,66.666669%,89.411765%);fill-opacity:1;" d="M 43.402344 13.976562 L 43.402344 102.253906 L 84.597656 114.023438 L 84.597656 25.746094 Z M 43.402344 13.976562 "/>
<path style=" stroke:none;fill-rule:nonzero;fill:rgb(97.254902%,97.254902%,97.647059%);fill-opacity:1;" d="M 112.410156 34.074219 C 111.855469 33.65625 111.140625 33.523438 110.472656 33.714844 L 84.597656 41.105469 L 44.007812 29.511719 C 43.613281 29.398438 43.191406 29.398438 42.796875 29.511719 L 16.3125 37.078125 C 15.367188 37.347656 14.714844 38.214844 14.714844 39.199219 L 14.714844 92.164062 C 14.714844 92.855469 15.039062 93.507812 15.589844 93.925781 C 16.144531 94.34375 16.859375 94.476562 17.527344 94.285156 L 43.402344 86.894531 L 83.992188 98.488281 C 84.1875 98.546875 84.394531 98.574219 84.597656 98.574219 C 84.800781 98.574219 85.007812 98.546875 85.203125 98.488281 L 111.6875 90.921875 C 112.632812 90.652344 113.289062 89.785156 113.289062 88.800781 L 113.289062 35.835938 C 113.289062 35.144531 112.960938 34.492188 112.410156 34.074219 Z M 84.597656 94.074219 L 44.007812 82.476562 C 43.8125 82.417969 43.605469 82.390625 43.402344 82.390625 C 43.199219 82.390625 42.992188 82.417969 42.796875 82.476562 L 19.125 89.238281 L 19.125 79.117188 L 21.769531 78.363281 C 22.941406 78.027344 23.621094 76.804688 23.285156 75.632812 C 22.949219 74.460938 21.726562 73.78125 20.558594 74.117188 L 19.125 74.527344 L 19.125 57.15625 C 24.15625 56.132812 27.953125 51.671875 27.953125 46.34375 C 27.953125 45.125 26.964844 44.136719 25.746094 44.136719 C 24.527344 44.136719 23.539062 45.125 23.539062 46.34375 C 23.539062 49.222656 21.695312 51.675781 19.125 52.585938 L 19.125 40.863281 L 43.402344 33.925781 L 61.792969 39.179688 L 61.792969 41.929688 C 61.792969 43.152344 62.78125 44.136719 64 44.136719 C 65.21875 44.136719 66.207031 43.152344 66.207031 41.929688 L 66.207031 40.441406 L 83.992188 45.523438 C 84.386719 45.636719 84.808594 45.636719 85.203125 45.523438 L 108.871094 38.761719 L 108.871094 50.660156 C 108.070312 51.171875 107.664062 52.167969 107.9375 53.128906 C 108.09375 53.664062 108.4375 54.09375 108.871094 54.371094 L 108.871094 70.84375 C 103.84375 71.867188 100.046875 76.328125 100.046875 81.65625 C 100.046875 82.875 101.035156 83.863281 102.253906 83.863281 C 103.472656 83.863281 104.460938 82.875 104.460938 81.65625 C 104.460938 78.777344 106.304688 76.324219 108.875 75.414062 L 108.875 87.136719 Z M 84.597656 94.074219 "/>
<path style=" stroke:none;fill-rule:nonzero;fill:rgb(97.254902%,97.254902%,97.647059%);fill-opacity:1;" d="M 88.234375 56.460938 L 83.992188 57.675781 C 82.820312 58.007812 82.140625 59.230469 82.476562 60.402344 C 82.753906 61.371094 83.636719 62.003906 84.597656 62.003906 C 84.796875 62.003906 85 61.976562 85.203125 61.917969 L 89.449219 60.707031 C 90.621094 60.371094 91.296875 59.148438 90.964844 57.976562 C 90.628906 56.804688 89.40625 56.125 88.234375 56.460938 Z M 88.234375 56.460938 "/>
<path style=" stroke:none;fill-rule:nonzero;fill:rgb(97.254902%,97.254902%,97.647059%);fill-opacity:1;" d="M 103.695312 54.339844 C 103.359375 53.167969 102.136719 52.488281 100.96875 52.824219 L 96.722656 54.035156 C 95.550781 54.371094 94.871094 55.59375 95.207031 56.765625 C 95.484375 57.734375 96.367188 58.367188 97.328125 58.367188 C 97.527344 58.367188 97.734375 58.339844 97.9375 58.28125 L 102.179688 57.066406 C 103.351562 56.734375 104.03125 55.511719 103.695312 54.339844 Z M 103.695312 54.339844 "/>
<path style=" stroke:none;fill-rule:nonzero;fill:rgb(97.254902%,97.254902%,97.647059%);fill-opacity:1;" d="M 42.796875 67.761719 L 41.777344 68.054688 C 40.605469 68.390625 39.925781 69.609375 40.261719 70.78125 C 40.539062 71.75 41.421875 72.382812 42.382812 72.382812 C 42.582031 72.382812 42.789062 72.355469 42.988281 72.296875 L 44.007812 72.007812 C 45.179688 71.671875 45.859375 70.449219 45.523438 69.277344 C 45.191406 68.105469 43.96875 67.429688 42.796875 67.761719 Z M 42.796875 67.761719 "/>
<path style=" stroke:none;fill-rule:nonzero;fill:rgb(97.254902%,97.254902%,97.647059%);fill-opacity:1;" d="M 33.289062 70.480469 L 29.046875 71.691406 C 27.871094 72.027344 27.195312 73.25 27.527344 74.421875 C 27.804688 75.390625 28.691406 76.019531 29.648438 76.019531 C 29.851562 76.019531 30.054688 75.992188 30.257812 75.933594 L 34.5 74.722656 C 35.671875 74.386719 36.351562 73.167969 36.015625 71.996094 C 35.683594 70.824219 34.460938 70.144531 33.289062 70.480469 Z M 33.289062 70.480469 "/>
<path style=" stroke:none;fill-rule:nonzero;fill:rgb(97.254902%,97.254902%,97.647059%);fill-opacity:1;" d="M 70.492188 76.589844 L 58.722656 73.226562 C 57.550781 72.890625 56.328125 73.570312 55.992188 74.742188 C 55.660156 75.914062 56.335938 77.136719 57.507812 77.472656 L 69.277344 80.835938 C 69.480469 80.890625 69.683594 80.921875 69.886719 80.921875 C 70.847656 80.921875 71.730469 80.289062 72.007812 79.320312 C 72.34375 78.148438 71.664062 76.925781 70.492188 76.589844 Z M 70.492188 76.589844 "/>
<path style=" stroke:none;fill-rule:nonzero;fill:rgb(97.254902%,97.254902%,97.647059%);fill-opacity:1;" d="M 64 57.378906 C 65.21875 57.378906 66.207031 56.390625 66.207031 55.171875 L 66.207031 50.757812 C 66.207031 49.539062 65.21875 48.550781 64 48.550781 C 62.78125 48.550781 61.792969 49.539062 61.792969 50.757812 L 61.792969 55.171875 C 61.792969 56.390625 62.78125 57.378906 64 57.378906 Z M 64 57.378906 "/>
<path style=" stroke:none;fill-rule:nonzero;fill:rgb(97.254902%,97.254902%,97.647059%);fill-opacity:1;" d="M 64 70.621094 C 65.21875 70.621094 66.207031 69.632812 66.207031 68.414062 L 66.207031 64 C 66.207031 62.78125 65.21875 61.792969 64 61.792969 C 62.78125 61.792969 61.792969 62.78125 61.792969 64 L 61.792969 68.414062 C 61.792969 69.632812 62.78125 70.621094 64 70.621094 Z M 64 70.621094 "/>
<path style=" stroke:none;fill-rule:nonzero;fill:rgb(92.941177%,92.941177%,92.941177%);fill-opacity:1;" d="M 44.007812 82.476562 C 43.8125 82.417969 43.605469 82.390625 43.402344 82.390625 L 43.402344 86.894531 L 83.992188 98.488281 C 84.1875 98.546875 84.394531 98.574219 84.597656 98.574219 L 84.597656 94.074219 Z M 44.007812 82.476562 "/>
<path style=" stroke:none;fill-rule:nonzero;fill:rgb(92.941177%,92.941177%,92.941177%);fill-opacity:1;" d="M 61.792969 39.179688 L 61.792969 41.929688 C 61.792969 43.152344 62.78125 44.136719 64 44.136719 C 65.21875 44.136719 66.207031 43.152344 66.207031 41.929688 L 66.207031 40.441406 L 83.992188 45.523438 C 84.1875 45.582031 84.394531 45.609375 84.597656 45.609375 L 84.597656 41.105469 L 44.007812 29.511719 C 43.8125 29.453125 43.605469 29.425781 43.402344 29.425781 L 43.402344 33.925781 Z M 61.792969 39.179688 "/>
<path style=" stroke:none;fill-rule:nonzero;fill:rgb(92.941177%,92.941177%,92.941177%);fill-opacity:1;" d="M 83.992188 57.675781 C 82.820312 58.007812 82.140625 59.230469 82.476562 60.402344 C 82.753906 61.371094 83.636719 62.003906 84.597656 62.003906 L 84.597656 57.5 Z M 83.992188 57.675781 "/>
<path style=" stroke:none;fill-rule:nonzero;fill:rgb(92.941177%,92.941177%,92.941177%);fill-opacity:1;" d="M 44.007812 72.007812 C 45.179688 71.671875 45.859375 70.449219 45.523438 69.277344 C 45.246094 68.308594 44.363281 67.679688 43.402344 67.679688 L 43.402344 72.179688 Z M 44.007812 72.007812 "/>
<path style=" stroke:none;fill-rule:nonzero;fill:rgb(92.941177%,92.941177%,92.941177%);fill-opacity:1;" d="M 70.492188 76.589844 L 58.722656 73.226562 C 57.550781 72.890625 56.328125 73.570312 55.992188 74.742188 C 55.660156 75.914062 56.335938 77.136719 57.507812 77.472656 L 69.277344 80.835938 C 69.480469 80.890625 69.683594 80.921875 69.886719 80.921875 C 70.847656 80.921875 71.730469 80.289062 72.007812 79.320312 C 72.34375 78.148438 71.664062 76.925781 70.492188 76.589844 Z M 70.492188 76.589844 "/>
<path style=" stroke:none;fill-rule:nonzero;fill:rgb(92.941177%,92.941177%,92.941177%);fill-opacity:1;" d="M 64 57.378906 C 65.21875 57.378906 66.207031 56.390625 66.207031 55.171875 L 66.207031 50.757812 C 66.207031 49.539062 65.21875 48.550781 64 48.550781 C 62.78125 48.550781 61.792969 49.539062 61.792969 50.757812 L 61.792969 55.171875 C 61.792969 56.390625 62.78125 57.378906 64 57.378906 Z M 64 57.378906 "/>
<path style=" stroke:none;fill-rule:nonzero;fill:rgb(92.941177%,92.941177%,92.941177%);fill-opacity:1;" d="M 64 70.621094 C 65.21875 70.621094 66.207031 69.632812 66.207031 68.414062 L 66.207031 64 C 66.207031 62.78125 65.21875 61.792969 64 61.792969 C 62.78125 61.792969 61.792969 62.78125 61.792969 64 L 61.792969 68.414062 C 61.792969 69.632812 62.78125 70.621094 64 70.621094 Z M 64 70.621094 "/>
<path style=" stroke:none;fill-rule:nonzero;fill:rgb(18.039216%,17.647059%,19.215687%);fill-opacity:1;" d="M 127.121094 12.214844 C 126.570312 11.796875 125.851562 11.664062 125.1875 11.855469 L 84.597656 23.453125 L 44.007812 11.855469 C 43.613281 11.742188 43.191406 11.742188 42.796875 11.855469 L 1.601562 23.625 C 0.652344 23.894531 0 24.761719 0 25.746094 L 0 114.023438 C 0 114.714844 0.324219 115.367188 0.878906 115.785156 C 1.265625 116.078125 1.734375 116.230469 2.207031 116.230469 C 2.410156 116.230469 2.613281 116.203125 2.8125 116.144531 L 43.402344 104.546875 L 83.992188 116.144531 C 84.386719 116.257812 84.808594 116.257812 85.203125 116.144531 L 126.398438 104.375 C 127.347656 104.105469 128 103.238281 128 102.253906 L 128 13.976562 C 128 13.285156 127.675781 12.632812 127.121094 12.214844 Z M 45.609375 16.902344 L 82.390625 27.410156 L 82.390625 111.097656 L 45.609375 100.585938 Z M 4.414062 27.410156 L 41.195312 16.902344 L 41.195312 100.585938 L 4.414062 111.097656 Z M 123.585938 100.589844 L 86.804688 111.097656 L 86.804688 27.410156 L 123.585938 16.902344 Z M 123.585938 100.589844 "/>
</g>
</svg>
