<?xml version="1.0" encoding="UTF-8"?>
<svg xmlns="http://www.w3.org/2000/svg" xmlns:xlink="http://www.w3.org/1999/xlink" width="16px" height="16px" viewBox="0 0 16 16" version="1.1">
<g id="surface1">
<path style=" stroke:none;fill-rule:nonzero;fill:rgb(95.686275%,26.274511%,21.176471%);fill-opacity:1;" d="M 15.546875 7.339844 C 16.042969 6.976562 16.148438 6.28125 15.785156 5.785156 C 15.421875 5.292969 14.726562 5.1875 14.230469 5.550781 L 10.90625 8 L 7.554688 8 C 7.3125 8 7.109375 7.800781 7.109375 7.554688 C 7.109375 7.3125 7.3125 7.109375 7.554688 7.109375 L 9.777344 7.109375 C 10.269531 7.109375 10.667969 6.714844 10.667969 6.222656 C 10.667969 5.730469 10.269531 5.332031 9.777344 5.332031 L 5.378906 5.332031 C 4.570312 5.332031 3.789062 5.609375 3.160156 6.113281 L 1.910156 7.113281 L 0.890625 7.113281 C 0.398438 7.109375 0 7.507812 0 8 L 0 9.777344 C 0 10.269531 0.398438 10.667969 0.890625 10.667969 L 9.792969 10.667969 C 10.597656 10.667969 11.382812 10.40625 12.03125 9.929688 L 15.550781 7.339844 Z M 5.378906 7.109375 C 5.382812 7.113281 5.378906 7.125 5.375 7.128906 C 5.367188 7.132812 5.359375 7.128906 5.355469 7.121094 C 5.351562 7.121094 5.351562 7.113281 5.351562 7.109375 C 5.347656 7.105469 5.351562 7.097656 5.359375 7.09375 C 5.363281 7.089844 5.371094 7.089844 5.375 7.097656 C 5.378906 7.101562 5.378906 7.105469 5.378906 7.109375 Z M 5.378906 7.109375 "/>
</g>
</svg>
