<?xml version="1.0" encoding="UTF-8"?>
<svg xmlns="http://www.w3.org/2000/svg" xmlns:xlink="http://www.w3.org/1999/xlink" width="16px" height="16px" viewBox="0 0 16 16" version="1.1">
<g id="surface1">
<path style=" stroke:none;fill-rule:nonzero;fill:rgb(95.686275%,26.274511%,21.176471%);fill-opacity:1;" d="M 8 0 C 7.242188 0 6.515625 0.113281 5.820312 0.3125 L 6.867188 3.039062 C 7.230469 2.960938 7.609375 2.910156 7.996094 2.910156 C 8.382812 2.910156 8.761719 2.957031 9.125 3.039062 L 10.179688 0.3125 C 9.484375 0.113281 8.757812 0 8 0 Z M 4.464844 0.835938 C 3.375 1.382812 2.425781 2.164062 1.683594 3.117188 L 4.148438 4.683594 C 4.214844 4.601562 4.289062 4.527344 4.367188 4.449219 L 4.367188 4.457031 L 4.460938 4.363281 L 4.445312 4.363281 C 4.765625 4.050781 5.121094 3.78125 5.511719 3.558594 Z M 11.535156 0.835938 L 10.488281 3.5625 C 10.878906 3.78125 11.230469 4.054688 11.546875 4.363281 L 11.539062 4.363281 L 11.632812 4.457031 L 11.632812 4.445312 C 11.757812 4.570312 11.871094 4.695312 11.976562 4.835938 L 14.496094 3.367188 C 13.738281 2.300781 12.71875 1.429688 11.535156 0.835938 Z M 0.898438 4.34375 C 0.328125 5.441406 0 6.683594 0 8 L 2.910156 8 C 2.910156 7.257812 3.074219 6.550781 3.363281 5.914062 Z M 8 4.363281 C 7.753906 4.363281 7.507812 4.382812 7.273438 4.433594 L 7.273438 14.542969 L 8.726562 14.542969 L 8.726562 4.4375 C 8.492188 4.382812 8.246094 4.363281 8 4.363281 Z M 15.234375 4.621094 L 12.714844 6.089844 C 12.957031 6.679688 13.089844 7.324219 13.089844 8 L 16 8 C 16 6.792969 15.71875 5.648438 15.234375 4.621094 Z M 5.820312 5.089844 C 4.9375 5.753906 4.367188 6.816406 4.367188 8 L 4.367188 14.546875 L 5.820312 14.546875 Z M 10.179688 5.089844 L 10.179688 14.542969 L 11.632812 14.542969 L 11.632812 8 C 11.636719 6.816406 11.0625 5.753906 10.179688 5.089844 Z M 0 9.453125 L 0 12.363281 L 2.910156 12.363281 L 2.910156 9.453125 Z M 13.089844 9.453125 L 13.089844 12.363281 L 16 12.363281 L 16 9.453125 Z M 0 13.820312 L 0 16 L 2.910156 16 L 2.910156 13.820312 Z M 13.089844 13.820312 L 13.089844 16 L 16 16 L 16 13.820312 Z M 13.089844 13.820312 "/>
</g>
</svg>
