<?xml version="1.0" encoding="UTF-8"?>
<svg xmlns="http://www.w3.org/2000/svg" xmlns:xlink="http://www.w3.org/1999/xlink" width="16px" height="16px" viewBox="0 0 16 16" version="1.1">
<g id="surface1">
<path style=" stroke:none;fill-rule:nonzero;fill:rgb(95.686275%,26.274511%,21.176471%);fill-opacity:1;" d="M 15.109375 0.890625 L 14.222656 0.890625 L 14.222656 4.898438 L 6.566406 10.855469 L 6.484375 10.925781 L 3.554688 13.855469 L 2.144531 12.445312 L 5.074219 9.515625 L 5.144531 9.433594 L 11.101562 1.777344 L 15.109375 1.777344 L 15.109375 0.890625 L 14.222656 0.890625 L 15.109375 0.890625 L 15.109375 0 L 10.667969 0 C 10.394531 0 10.132812 0.128906 9.964844 0.34375 L 3.777344 8.300781 L 0.261719 11.816406 C 0.09375 11.980469 0 12.210938 0 12.445312 C 0 12.679688 0.09375 12.90625 0.261719 13.074219 L 2.925781 15.738281 C 3.09375 15.90625 3.320312 16 3.554688 16 C 3.789062 16 4.019531 15.90625 4.183594 15.738281 L 7.699219 12.222656 L 15.65625 6.035156 C 15.871094 5.867188 16 5.605469 16 5.332031 L 16 0.890625 C 16 0.65625 15.90625 0.425781 15.738281 0.261719 C 15.574219 0.09375 15.34375 0 15.109375 0 Z M 15.109375 0.890625 "/>
<path style=" stroke:none;fill-rule:nonzero;fill:rgb(95.686275%,26.274511%,21.176471%);fill-opacity:1;" d="M 2.484375 8.183594 L 7.816406 13.515625 C 8.164062 13.863281 8.726562 13.863281 9.074219 13.515625 C 9.421875 13.171875 9.421875 12.609375 9.074219 12.261719 L 3.738281 6.925781 C 3.390625 6.578125 2.828125 6.578125 2.484375 6.925781 C 2.136719 7.273438 2.136719 7.835938 2.484375 8.183594 "/>
</g>
</svg>
