<?xml version="1.0" encoding="UTF-8"?>
<svg xmlns="http://www.w3.org/2000/svg" xmlns:xlink="http://www.w3.org/1999/xlink" width="16px" height="16px" viewBox="0 0 16 15" version="1.1">
<g id="surface1">
<path style=" stroke:none;fill-rule:evenodd;fill:rgb(93.333334%,97.647059%,6.27451%);fill-opacity:1;" d="M 9.078125 3.203125 L 8.074219 4.152344 L 7.039062 5.144531 L 5.507812 6.589844 L 4.460938 7.570312 L 3.484375 8.492188 C 3.300781 8.664062 3.003906 8.664062 2.824219 8.492188 L 2.441406 8.132812 C 2.261719 7.960938 2.261719 7.679688 2.441406 7.507812 L 8.039062 2.21875 C 8.21875 2.050781 8.515625 2.050781 8.695312 2.21875 L 9.078125 2.582031 C 9.257812 2.753906 9.257812 3.03125 9.078125 3.203125 Z M 6.304688 3.296875 L 3.527344 5.921875 L 3.117188 5.535156 L 5.890625 2.910156 Z M 6.921875 11.796875 L 7.925781 10.847656 L 5.90625 8.9375 C 5.617188 8.664062 5.617188 8.222656 5.90625 7.953125 C 6.191406 7.679688 6.660156 7.679688 6.949219 7.953125 L 8.960938 9.855469 L 10.492188 8.410156 L 8.476562 6.503906 C 8.191406 6.234375 8.191406 5.792969 8.476562 5.519531 C 8.765625 5.25 9.234375 5.25 9.519531 5.519531 L 11.539062 7.429688 L 12.519531 6.507812 C 12.699219 6.335938 12.996094 6.335938 13.175781 6.507812 L 13.558594 6.867188 C 13.738281 7.039062 13.738281 7.320312 13.558594 7.492188 L 7.960938 12.78125 C 7.78125 12.949219 7.484375 12.949219 7.304688 12.78125 L 6.921875 12.417969 C 6.742188 12.246094 6.742188 11.96875 6.921875 11.796875 Z M 9.691406 11.695312 L 12.464844 9.070312 L 12.878906 9.460938 L 10.101562 12.085938 Z M 8.21875 12.535156 L 9.023438 13.292969 C 10.421875 14.617188 11.726562 14.675781 13.324219 13.492188 L 14.917969 15 L 15.960938 14.015625 L 14.351562 12.496094 C 15.625 11.035156 15.433594 9.648438 14.078125 8.367188 L 13.351562 7.683594 Z M 7.78125 2.464844 L 6.976562 1.707031 C 5.578125 0.382812 4.273438 0.324219 2.675781 1.507812 L 1.078125 0 L 0.0390625 0.984375 L 1.644531 2.503906 C 0.371094 3.964844 0.566406 5.351562 1.917969 6.632812 L 2.644531 7.316406 Z M 7.78125 2.464844 "/>
</g>
</svg>
