<?xml version="1.0" encoding="UTF-8"?>
<svg xmlns="http://www.w3.org/2000/svg" xmlns:xlink="http://www.w3.org/1999/xlink" width="16px" height="16px" viewBox="0 0 16 16" version="1.1">
<g id="surface1">
<path style=" stroke:none;fill-rule:nonzero;fill:rgb(95.686275%,26.274511%,21.176471%);fill-opacity:1;" d="M 8 2.285156 C 9.371094 2.285156 10.632812 2.769531 11.617188 3.574219 L 10.453125 4.738281 C 10.289062 4.902344 10.242188 5.148438 10.328125 5.359375 C 10.414062 5.570312 10.625 5.714844 10.855469 5.714844 L 14.855469 5.714844 C 15.171875 5.714844 15.429688 5.457031 15.429688 5.144531 L 15.429688 1.144531 C 15.429688 0.910156 15.289062 0.703125 15.074219 0.613281 C 14.859375 0.523438 14.613281 0.574219 14.453125 0.738281 L 13.238281 1.953125 C 11.835938 0.734375 10.003906 0 8 0 C 7.609375 0 7.230469 0.0273438 6.855469 0.0820312 L 6.855469 2.398438 C 7.226562 2.324219 7.605469 2.285156 8 2.285156 Z M 3.574219 4.382812 L 4.738281 5.546875 C 4.902344 5.710938 5.148438 5.757812 5.359375 5.671875 C 5.570312 5.585938 5.714844 5.375 5.714844 5.144531 L 5.714844 1.144531 C 5.714844 0.828125 5.457031 0.570312 5.144531 0.570312 L 1.144531 0.570312 C 0.910156 0.570312 0.703125 0.710938 0.613281 0.925781 C 0.523438 1.140625 0.574219 1.386719 0.738281 1.546875 L 1.953125 2.761719 C 0.734375 4.164062 0 5.996094 0 8 C 0 8.390625 0.0273438 8.769531 0.0820312 9.144531 L 2.398438 9.144531 C 2.324219 8.773438 2.285156 8.394531 2.285156 8 C 2.285156 6.628906 2.769531 5.367188 3.574219 4.382812 Z M 15.917969 6.855469 L 13.601562 6.855469 C 13.675781 7.226562 13.714844 7.605469 13.714844 8 C 13.714844 9.371094 13.230469 10.632812 12.425781 11.617188 L 11.261719 10.453125 C 11.097656 10.289062 10.851562 10.242188 10.640625 10.328125 C 10.429688 10.414062 10.285156 10.625 10.285156 10.855469 L 10.285156 14.855469 C 10.285156 15.171875 10.542969 15.429688 10.855469 15.429688 L 14.855469 15.429688 C 15.089844 15.429688 15.296875 15.289062 15.386719 15.074219 C 15.476562 14.859375 15.425781 14.613281 15.261719 14.453125 L 14.046875 13.238281 C 15.265625 11.835938 16 10.003906 16 8 C 16 7.609375 15.972656 7.230469 15.917969 6.855469 Z M 8 13.714844 C 6.628906 13.714844 5.367188 13.230469 4.382812 12.425781 L 5.546875 11.261719 C 5.710938 11.097656 5.757812 10.851562 5.671875 10.640625 C 5.585938 10.429688 5.375 10.285156 5.144531 10.285156 L 1.144531 10.285156 C 0.828125 10.285156 0.570312 10.542969 0.570312 10.855469 L 0.570312 14.855469 C 0.570312 15.089844 0.710938 15.296875 0.925781 15.386719 C 1.140625 15.476562 1.386719 15.425781 1.546875 15.261719 L 2.761719 14.046875 C 4.164062 15.265625 5.996094 16 8 16 C 8.390625 16 8.769531 15.972656 9.144531 15.917969 L 9.144531 13.601562 C 8.773438 13.675781 8.394531 13.714844 8 13.714844 Z M 8 13.714844 "/>
</g>
</svg>
