<?xml version="1.0" encoding="UTF-8"?>
<svg xmlns="http://www.w3.org/2000/svg" xmlns:xlink="http://www.w3.org/1999/xlink" width="16px" height="16px" viewBox="0 0 16 16" version="1.1">
<g id="surface1">
<path style=" stroke:none;fill-rule:nonzero;fill:rgb(4.313726%,91.764706%,7.058824%);fill-opacity:1;" d="M 5.1875 16 L 12.195312 16 C 12.195312 16 14.828125 8.898438 15.648438 6.722656 C 16.472656 4.523438 14.464844 4.015625 13.714844 6.09375 C 13.183594 7.589844 12.773438 7.785156 12.773438 7.785156 C 12.773438 7.785156 11.949219 7.785156 12.070312 6.914062 C 12.265625 5.730469 12.507812 4.28125 12.894531 2.085938 C 13.132812 0.730469 10.960938 0.511719 10.769531 1.648438 C 10.578125 2.789062 10.140625 5.78125 10.019531 6.480469 C 9.898438 7.179688 9.101562 7.738281 9.027344 6.046875 C 8.980469 4.914062 8.90625 3.242188 8.90625 1.046875 C 8.90625 -0.449219 6.515625 -0.257812 6.515625 1.117188 C 6.515625 2.085938 6.585938 6 6.585938 6.746094 C 6.5625 7.496094 6.25 7.738281 5.765625 6.675781 C 5.257812 5.539062 4.726562 4.210938 4.269531 3.101562 C 3.570312 1.480469 1.707031 2.59375 2.144531 3.726562 C 2.507812 4.71875 3.425781 6.917969 4.148438 8.609375 C 4.511719 9.476562 4.996094 11.195312 3.835938 10.300781 C 3.011719 9.671875 2.699219 9.042969 1.757812 8.414062 C 0.8125 7.789062 -0.128906 9.140625 0.234375 9.574219 C 1.054688 10.5625 2.480469 12.160156 3.398438 13.65625 C 4.078125 14.789062 5.1875 16 5.1875 16 Z M 5.1875 16 "/>
</g>
</svg>
