<?xml version="1.0" encoding="UTF-8"?>
<svg xmlns="http://www.w3.org/2000/svg" xmlns:xlink="http://www.w3.org/1999/xlink" width="16px" height="16px" viewBox="0 0 16 16" version="1.1">
<g id="surface1">
<path style=" stroke:none;fill-rule:nonzero;fill:rgb(15.686275%,96.862745%,16.862746%);fill-opacity:1;" d="M 13.601562 2.398438 L 12.800781 2.398438 L 12.800781 13.601562 C 12.800781 14.042969 12.441406 14.398438 12 14.398438 L 4 14.398438 C 3.558594 14.398438 3.199219 14.042969 3.199219 13.601562 L 3.199219 2.398438 C 3.199219 1.957031 3.558594 1.601562 4 1.601562 L 12 1.601562 C 12.441406 1.601562 12.800781 1.957031 12.800781 2.398438 L 14.398438 2.398438 C 14.398438 1.074219 13.324219 0 12 0 L 4 0 C 2.675781 0 1.601562 1.074219 1.601562 2.398438 L 1.601562 13.601562 C 1.601562 14.925781 2.675781 16 4 16 L 12 16 C 13.324219 16 14.398438 14.925781 14.398438 13.601562 L 14.398438 2.398438 Z M 13.601562 2.398438 "/>
<path style=" stroke:none;fill-rule:nonzero;fill:rgb(15.686275%,96.862745%,16.862746%);fill-opacity:1;" d="M 4.800781 4 L 4.808594 4 C 5.25 4 5.609375 3.640625 5.609375 3.199219 C 5.609375 2.757812 5.25 2.398438 4.808594 2.398438 L 4.800781 2.398438 C 4.359375 2.398438 4 2.757812 4 3.199219 C 4 3.640625 4.359375 4 4.800781 4 "/>
<path style=" stroke:none;fill-rule:nonzero;fill:rgb(15.686275%,96.862745%,16.862746%);fill-opacity:1;" d="M 11.199219 13.601562 L 11.207031 13.601562 C 11.648438 13.601562 12.007812 13.242188 12.007812 12.800781 C 12.007812 12.359375 11.648438 12 11.207031 12 L 11.199219 12 C 10.757812 12 10.398438 12.359375 10.398438 12.800781 C 10.398438 13.242188 10.757812 13.601562 11.199219 13.601562 "/>
<path style=" stroke:none;fill-rule:nonzero;fill:rgb(15.686275%,96.862745%,16.862746%);fill-opacity:1;" d="M 8 11.199219 L 8.640625 10.71875 L 6.601562 8 L 8 6.132812 L 9.398438 8 L 7.359375 10.71875 L 8 11.199219 L 8.640625 10.71875 L 8 11.199219 L 8.640625 11.679688 L 11.039062 8.480469 C 11.253906 8.195312 11.253906 7.804688 11.039062 7.519531 L 8.640625 4.320312 C 8.488281 4.117188 8.25 4 8 4 C 7.75 4 7.511719 4.117188 7.359375 4.320312 L 4.960938 7.519531 C 4.746094 7.804688 4.746094 8.195312 4.960938 8.480469 L 7.359375 11.679688 C 7.511719 11.882812 7.75 12 8 12 C 8.25 12 8.488281 11.882812 8.640625 11.679688 Z M 8 11.199219 "/>
</g>
</svg>
