<?xml version="1.0" encoding="UTF-8"?>
<svg xmlns="http://www.w3.org/2000/svg" xmlns:xlink="http://www.w3.org/1999/xlink" width="16px" height="16px" viewBox="0 0 16 16" version="1.1">
<g id="surface1">
<path style=" stroke:none;fill-rule:nonzero;fill:rgb(95.294118%,96.862745%,2.745098%);fill-opacity:1;" d="M 8 0 C 4.023438 0 0.800781 3.222656 0.800781 7.199219 L 0.800781 16 L 3.199219 13.601562 L 5.601562 16 L 8 13.601562 L 10.398438 16 L 12.800781 13.601562 L 15.199219 16 L 15.199219 7.199219 C 15.199219 3.222656 11.976562 0 8 0 M 13.601562 12.136719 L 12.800781 11.335938 L 11.671875 12.472656 L 10.398438 13.734375 L 9.128906 12.472656 L 8 11.335938 L 6.871094 12.472656 L 5.601562 13.734375 L 4.328125 12.472656 L 3.199219 11.335938 L 2.398438 12.136719 L 2.398438 7.199219 C 2.398438 4.113281 4.910156 1.601562 8 1.601562 C 11.089844 1.601562 13.601562 4.113281 13.601562 7.199219 L 13.601562 12.136719 M 7.199219 6.398438 C 7.199219 7.289062 6.488281 8 5.601562 8 C 4.710938 8 4 7.289062 4 6.398438 C 4 5.511719 4.71875 4.800781 5.601562 4.800781 C 6.480469 4.800781 7.199219 5.519531 7.199219 6.398438 M 12 6.398438 C 12 7.289062 11.289062 8 10.398438 8 C 9.511719 8 8.800781 7.289062 8.800781 6.398438 C 8.800781 5.511719 9.519531 4.800781 10.398438 4.800781 C 11.28125 4.800781 12 5.519531 12 6.398438 Z M 12 6.398438 "/>
</g>
</svg>
