<?xml version="1.0" encoding="UTF-8"?>
<svg xmlns="http://www.w3.org/2000/svg" xmlns:xlink="http://www.w3.org/1999/xlink" width="16px" height="16px" viewBox="0 0 16 16" version="1.1">
<g id="surface1">
<path style=" stroke:none;fill-rule:nonzero;fill:rgb(91.764706%,86.274511%,12.54902%);fill-opacity:1;" d="M 14.667969 0.53125 L 9.601562 0.53125 L 9.601562 0.265625 C 9.601562 0.121094 9.480469 0 9.332031 0 L 6.667969 0 C 6.519531 0 6.398438 0.121094 6.398438 0.265625 L 6.398438 0.53125 L 1.332031 0.53125 C 0.597656 0.53125 0 1.132812 0 1.867188 L 0 7.734375 C 0 7.878906 0.121094 8 0.265625 8 L 14.667969 8 C 14.8125 8 14.933594 7.878906 14.933594 7.734375 L 14.933594 2.132812 C 14.933594 1.839844 14.695312 1.601562 14.398438 1.601562 L 10.398438 1.601562 C 10.253906 1.601562 10.132812 1.71875 10.132812 1.867188 C 10.132812 2.015625 10.253906 2.132812 10.398438 2.132812 L 14.398438 2.132812 L 14.398438 7.46875 L 13.867188 7.46875 L 13.867188 6.667969 C 13.867188 6.519531 13.746094 6.398438 13.601562 6.398438 L 12 6.398438 C 11.851562 6.398438 11.734375 6.519531 11.734375 6.667969 C 11.734375 6.8125 11.851562 6.933594 12 6.933594 L 13.332031 6.933594 L 13.332031 7.46875 L 10.667969 7.46875 L 10.667969 6.933594 L 10.933594 6.933594 C 11.082031 6.933594 11.199219 6.8125 11.199219 6.667969 L 11.199219 5.867188 L 13.601562 5.867188 C 13.746094 5.867188 13.867188 5.746094 13.867188 5.601562 C 13.867188 5.453125 13.746094 5.332031 13.601562 5.332031 L 11.445312 5.332031 L 11.121094 4.773438 L 12.96875 3.707031 L 13.234375 4.167969 L 12.667969 4.496094 C 12.539062 4.570312 12.496094 4.734375 12.570312 4.863281 C 12.644531 4.988281 12.804688 5.03125 12.933594 4.960938 L 13.734375 4.496094 C 13.792969 4.460938 13.839844 4.40625 13.855469 4.335938 C 13.875 4.265625 13.867188 4.195312 13.832031 4.132812 L 13.296875 3.210938 C 13.222656 3.082031 13.0625 3.039062 12.933594 3.113281 L 10.625 4.445312 C 10.5625 4.480469 10.519531 4.539062 10.5 4.609375 C 10.480469 4.675781 10.492188 4.75 10.527344 4.808594 L 10.839844 5.351562 C 10.738281 5.390625 10.667969 5.484375 10.667969 5.601562 L 10.667969 6.398438 L 10.398438 6.398438 C 10.253906 6.398438 10.132812 6.519531 10.132812 6.667969 L 10.132812 7.46875 L 9.550781 7.46875 C 9.441406 7.15625 9.148438 6.933594 8.800781 6.933594 C 8.453125 6.933594 8.160156 7.15625 8.050781 7.46875 L 6.589844 7.46875 C 6.882812 6.878906 7.066406 6.203125 7.148438 5.867188 L 7.199219 5.867188 C 7.347656 5.867188 7.46875 5.746094 7.46875 5.601562 L 7.46875 4.535156 C 7.46875 4.386719 7.347656 4.265625 7.199219 4.265625 L 6.351562 4.265625 C 6.242188 3.957031 5.949219 3.734375 5.601562 3.734375 C 5.253906 3.734375 4.960938 3.957031 4.851562 4.265625 L 4.21875 4.265625 C 4.246094 4.183594 4.265625 4.09375 4.265625 4 C 4.265625 3.558594 3.90625 3.199219 3.46875 3.199219 C 3.027344 3.199219 2.667969 3.558594 2.667969 4 C 2.667969 4.09375 2.6875 4.183594 2.714844 4.265625 L 2.398438 4.265625 C 2.253906 4.265625 2.132812 4.386719 2.132812 4.535156 L 2.132812 5.601562 C 2.132812 5.746094 2.253906 5.867188 2.398438 5.867188 L 2.453125 5.867188 C 2.535156 6.203125 2.71875 6.878906 3.011719 7.46875 L 0.53125 7.46875 L 0.53125 1.867188 C 0.53125 1.425781 0.890625 1.066406 1.332031 1.066406 L 6.398438 1.066406 L 6.398438 1.867188 C 6.398438 2.335938 6.730469 2.667969 7.199219 2.667969 L 8.800781 2.667969 C 9.269531 2.667969 9.601562 2.335938 9.601562 1.867188 L 9.601562 1.066406 L 14.667969 1.066406 C 15.109375 1.066406 15.46875 1.425781 15.46875 1.867188 L 15.46875 14.667969 C 15.46875 15.109375 15.109375 15.46875 14.667969 15.46875 L 1.332031 15.46875 C 0.890625 15.46875 0.53125 15.109375 0.53125 14.667969 L 0.53125 8.800781 C 0.53125 8.652344 0.414062 8.535156 0.265625 8.535156 C 0.121094 8.535156 0 8.652344 0 8.800781 L 0 14.667969 C 0 15.402344 0.597656 16 1.332031 16 L 14.667969 16 C 15.402344 16 16 15.402344 16 14.667969 L 16 1.867188 C 16 1.132812 15.402344 0.53125 14.667969 0.53125 Z M 3.46875 3.734375 C 3.613281 3.734375 3.734375 3.851562 3.734375 4 C 3.734375 4.148438 3.613281 4.265625 3.46875 4.265625 C 3.320312 4.265625 3.199219 4.148438 3.199219 4 C 3.199219 3.851562 3.320312 3.734375 3.46875 3.734375 Z M 3.003906 5.867188 L 5.601562 5.867188 C 5.746094 5.867188 5.867188 5.746094 5.867188 5.601562 C 5.867188 5.453125 5.746094 5.332031 5.601562 5.332031 L 2.667969 5.332031 L 2.667969 4.800781 L 6.933594 4.800781 L 6.933594 5.332031 C 6.804688 5.332031 6.695312 5.421875 6.671875 5.546875 C 6.667969 5.558594 6.433594 6.710938 5.984375 7.46875 L 3.613281 7.46875 C 3.3125 6.957031 3.105469 6.265625 3.003906 5.867188 Z M 9.066406 1.867188 C 9.066406 2.042969 8.976562 2.132812 8.800781 2.132812 L 8.265625 2.132812 L 8.265625 1.867188 C 8.265625 1.71875 8.148438 1.601562 8 1.601562 C 7.851562 1.601562 7.734375 1.71875 7.734375 1.867188 L 7.734375 2.132812 L 7.199219 2.132812 C 7.023438 2.132812 6.933594 2.042969 6.933594 1.867188 L 6.933594 0.53125 L 9.066406 0.53125 Z M 9.066406 1.867188 "/>
<path style=" stroke:none;fill-rule:nonzero;fill:rgb(91.764706%,86.274511%,12.54902%);fill-opacity:1;" d="M 6.132812 12.800781 L 2.933594 12.800781 C 2.785156 12.800781 2.667969 12.917969 2.667969 13.066406 C 2.667969 13.214844 2.785156 13.332031 2.933594 13.332031 L 6.132812 13.332031 C 6.28125 13.332031 6.398438 13.214844 6.398438 13.066406 C 6.398438 12.917969 6.28125 12.800781 6.132812 12.800781 Z M 6.132812 12.800781 "/>
<path style=" stroke:none;fill-rule:nonzero;fill:rgb(91.764706%,86.274511%,12.54902%);fill-opacity:1;" d="M 9.332031 12.800781 L 10.398438 12.800781 C 10.546875 12.800781 10.667969 12.679688 10.667969 12.535156 C 10.667969 12.386719 10.546875 12.265625 10.398438 12.265625 L 9.332031 12.265625 C 9.1875 12.265625 9.066406 12.386719 9.066406 12.535156 C 9.066406 12.679688 9.1875 12.800781 9.332031 12.800781 Z M 9.332031 12.800781 "/>
<path style=" stroke:none;fill-rule:nonzero;fill:rgb(91.764706%,86.274511%,12.54902%);fill-opacity:1;" d="M 6.667969 8.535156 L 1.332031 8.535156 C 1.1875 8.535156 1.066406 8.652344 1.066406 8.800781 L 1.066406 14.667969 C 1.066406 14.8125 1.1875 14.933594 1.332031 14.933594 L 14.667969 14.933594 C 14.8125 14.933594 14.933594 14.8125 14.933594 14.667969 L 14.933594 8.800781 C 14.933594 8.652344 14.8125 8.535156 14.667969 8.535156 L 7.734375 8.535156 C 7.585938 8.535156 7.46875 8.652344 7.46875 8.800781 C 7.46875 8.945312 7.585938 9.066406 7.734375 9.066406 L 9.066406 9.066406 L 9.066406 10.132812 C 9.066406 10.722656 8.589844 11.199219 8 11.199219 C 7.410156 11.199219 6.933594 10.722656 6.933594 10.132812 L 6.933594 8.800781 C 6.933594 8.652344 6.8125 8.535156 6.667969 8.535156 Z M 8 11.734375 C 8.882812 11.734375 9.601562 11.015625 9.601562 10.132812 L 9.601562 9.066406 L 14.398438 9.066406 L 14.398438 11.199219 L 12.535156 11.199219 C 12.386719 11.199219 12.265625 11.320312 12.265625 11.46875 C 12.265625 11.613281 12.386719 11.734375 12.535156 11.734375 L 14.398438 11.734375 L 14.398438 14.398438 L 1.601562 14.398438 L 1.601562 11.734375 L 2.398438 11.734375 C 2.546875 11.734375 2.667969 11.613281 2.667969 11.46875 C 2.667969 11.320312 2.546875 11.199219 2.398438 11.199219 L 1.601562 11.199219 L 1.601562 9.066406 L 6.398438 9.066406 L 6.398438 10.132812 C 6.398438 11.015625 7.117188 11.734375 8 11.734375 Z M 8 11.734375 "/>
<path style=" stroke:none;fill-rule:nonzero;fill:rgb(91.764706%,86.274511%,12.54902%);fill-opacity:1;" d="M 9.066406 4 C 9.066406 3.558594 8.707031 3.199219 8.265625 3.199219 C 7.824219 3.199219 7.46875 3.558594 7.46875 4 C 7.46875 4.441406 7.824219 4.800781 8.265625 4.800781 C 8.707031 4.800781 9.066406 4.441406 9.066406 4 Z M 8.265625 4.265625 C 8.121094 4.265625 8 4.148438 8 4 C 8 3.851562 8.121094 3.734375 8.265625 3.734375 C 8.414062 3.734375 8.535156 3.851562 8.535156 4 C 8.535156 4.148438 8.414062 4.265625 8.265625 4.265625 Z M 8.265625 4.265625 "/>
<path style=" stroke:none;fill-rule:nonzero;fill:rgb(91.764706%,86.274511%,12.54902%);fill-opacity:1;" d="M 1.601562 1.601562 C 1.304688 1.601562 1.066406 1.839844 1.066406 2.132812 L 1.066406 6.667969 C 1.066406 6.8125 1.1875 6.933594 1.332031 6.933594 C 1.480469 6.933594 1.601562 6.8125 1.601562 6.667969 L 1.601562 2.132812 L 5.601562 2.132812 C 5.746094 2.132812 5.867188 2.015625 5.867188 1.867188 C 5.867188 1.71875 5.746094 1.601562 5.601562 1.601562 Z M 1.601562 1.601562 "/>
<path style=" stroke:none;fill-rule:nonzero;fill:rgb(91.764706%,86.274511%,12.54902%);fill-opacity:1;" d="M 9.332031 6.398438 C 9.773438 6.398438 10.132812 6.042969 10.132812 5.601562 C 10.132812 5.160156 9.773438 4.800781 9.332031 4.800781 C 8.890625 4.800781 8.535156 5.160156 8.535156 5.601562 C 8.535156 6.042969 8.890625 6.398438 9.332031 6.398438 Z M 9.332031 5.332031 C 9.480469 5.332031 9.601562 5.453125 9.601562 5.601562 C 9.601562 5.746094 9.480469 5.867188 9.332031 5.867188 C 9.1875 5.867188 9.066406 5.746094 9.066406 5.601562 C 9.066406 5.453125 9.1875 5.332031 9.332031 5.332031 Z M 9.332031 5.332031 "/>
<path style=" stroke:none;fill-rule:nonzero;fill:rgb(91.764706%,86.274511%,12.54902%);fill-opacity:1;" d="M 8.265625 10.132812 L 8.265625 9.867188 C 8.265625 9.71875 8.148438 9.601562 8 9.601562 C 7.851562 9.601562 7.734375 9.71875 7.734375 9.867188 L 7.734375 10.132812 C 7.734375 10.28125 7.851562 10.398438 8 10.398438 C 8.148438 10.398438 8.265625 10.28125 8.265625 10.132812 Z M 8.265625 10.132812 "/>
</g>
</svg>
