<?xml version="1.0" encoding="UTF-8"?>
<svg xmlns="http://www.w3.org/2000/svg" xmlns:xlink="http://www.w3.org/1999/xlink" width="16px" height="16px" viewBox="0 0 16 16" version="1.1">
<g id="surface1">
<path style=" stroke:none;fill-rule:evenodd;fill:rgb(5.490196%,94.901961%,20%);fill-opacity:1;" d="M 3.429688 11.429688 L 1.144531 11.429688 L 1.144531 14.855469 L 3.429688 14.855469 Z M 9.144531 6.855469 L 6.859375 6.855469 L 6.859375 14.855469 L 9.144531 14.855469 Z M 14.855469 1.144531 L 12.570312 1.144531 L 12.570312 14.859375 L 14.855469 14.859375 Z M 12.570312 0 C 11.941406 0 11.429688 0.511719 11.429688 1.144531 L 11.429688 14.859375 C 11.429688 15.492188 11.941406 16.003906 12.570312 16.003906 L 14.855469 16.003906 C 15.488281 16.003906 16 15.492188 16 14.859375 L 16 1.144531 C 16 0.511719 15.488281 0 14.855469 0 Z M 5.714844 6.855469 C 5.714844 6.226562 6.226562 5.710938 6.859375 5.710938 L 9.144531 5.710938 C 9.773438 5.710938 10.289062 6.226562 10.289062 6.855469 L 10.289062 14.855469 C 10.289062 15.488281 9.773438 16 9.144531 16 L 6.859375 16 C 6.226562 16 5.714844 15.488281 5.714844 14.855469 Z M 0 11.429688 C 0 10.796875 0.511719 10.285156 1.144531 10.285156 L 3.429688 10.285156 C 4.058594 10.285156 4.570312 10.796875 4.570312 11.429688 L 4.570312 14.855469 C 4.570312 15.488281 4.058594 16 3.429688 16 L 1.144531 16 C 0.511719 16 0 15.488281 0 14.855469 Z M 0 11.429688 "/>
</g>
</svg>
