<?xml version="1.0" encoding="UTF-8"?>
<svg xmlns="http://www.w3.org/2000/svg" xmlns:xlink="http://www.w3.org/1999/xlink" width="16px" height="16px" viewBox="0 0 16 16" version="1.1">
<g id="surface1">
<path style=" stroke:none;fill-rule:nonzero;fill:rgb(15.294118%,100%,34.901962%);fill-opacity:1;" d="M 8 12 L 4.800781 15.199219 L 4.800781 12 L 1.601562 12 C 0.714844 12 0 11.285156 0 10.398438 L 0 2.398438 C 0 1.519531 0.71875 0.800781 1.601562 0.800781 L 14.398438 0.800781 C 15.285156 0.800781 16 1.515625 16 2.398438 L 16 10.398438 C 16 11.285156 15.285156 12 14.398438 12 Z M 4 5.601562 L 4 7.199219 L 5.601562 7.199219 L 5.601562 5.601562 Z M 7.199219 5.601562 L 7.199219 7.199219 L 8.800781 7.199219 L 8.800781 5.601562 Z M 10.398438 5.601562 L 10.398438 7.199219 L 12 7.199219 L 12 5.601562 Z M 10.398438 5.601562 "/>
</g>
</svg>
