<?xml version="1.0" encoding="UTF-8"?>
<svg xmlns="http://www.w3.org/2000/svg" xmlns:xlink="http://www.w3.org/1999/xlink" width="16px" height="16px" viewBox="0 0 16 16" version="1.1">
<g id="surface1">
<path style=" stroke:none;fill-rule:nonzero;fill:rgb(12.941177%,58.823532%,95.294118%);fill-opacity:1;" d="M 8.523438 1.054688 C 8.210938 0.832031 7.789062 0.832031 7.476562 1.054688 L 2.585938 4.613281 C 2.277344 4.839844 2.144531 5.238281 2.265625 5.605469 C 2.386719 5.972656 2.722656 6.222656 3.109375 6.222656 L 3.554688 6.222656 L 3.554688 8.25 C 3.601562 8.277344 3.648438 8.304688 3.691406 8.335938 C 4.191406 8.679688 4.804688 8.898438 5.335938 8.898438 C 5.921875 8.898438 6.503906 8.664062 6.980469 8.335938 C 7.59375 7.90625 8.414062 7.90625 9.027344 8.335938 C 9.539062 8.6875 10.128906 8.898438 10.671875 8.898438 C 11.199219 8.898438 11.816406 8.679688 12.316406 8.335938 C 12.359375 8.308594 12.402344 8.28125 12.441406 8.253906 L 12.433594 6.222656 L 12.890625 6.222656 C 13.277344 6.222656 13.613281 5.972656 13.734375 5.605469 C 13.855469 5.238281 13.722656 4.839844 13.414062 4.613281 Z M 7.484375 9.496094 C 6.859375 9.925781 6.097656 10.222656 5.332031 10.222656 C 4.585938 10.222656 3.796875 9.921875 3.183594 9.496094 C 2.851562 9.261719 2.402344 9.28125 2.09375 9.542969 C 1.695312 9.875 1.191406 10.128906 0.6875 10.242188 C 0.210938 10.355469 -0.0859375 10.832031 0.0234375 11.3125 C 0.132812 11.789062 0.613281 12.085938 1.089844 11.976562 C 1.769531 11.816406 2.335938 11.515625 2.707031 11.28125 C 3.511719 11.714844 4.414062 12 5.332031 12 C 6.21875 12 7.015625 11.726562 7.566406 11.476562 C 7.726562 11.398438 7.875 11.328125 8 11.261719 C 8.125 11.328125 8.269531 11.402344 8.433594 11.476562 C 8.984375 11.726562 9.78125 12 10.667969 12 C 11.585938 12 12.488281 11.714844 13.292969 11.28125 C 13.664062 11.515625 14.230469 11.820312 14.910156 11.976562 C 15.386719 12.089844 15.867188 11.792969 15.976562 11.3125 C 16.085938 10.835938 15.789062 10.359375 15.3125 10.246094 C 14.808594 10.128906 14.308594 9.878906 13.90625 9.546875 C 13.597656 9.28125 13.148438 9.265625 12.816406 9.5 C 12.207031 9.921875 11.414062 10.222656 10.667969 10.222656 C 9.902344 10.222656 9.140625 9.929688 8.515625 9.496094 C 8.207031 9.277344 7.792969 9.277344 7.484375 9.496094 Z M 10.667969 13.332031 C 9.902344 13.332031 9.140625 13.039062 8.515625 12.609375 C 8.207031 12.390625 7.792969 12.390625 7.484375 12.609375 C 6.859375 13.039062 6.097656 13.332031 5.332031 13.332031 C 4.585938 13.332031 3.796875 13.035156 3.183594 12.609375 C 2.851562 12.371094 2.402344 12.390625 2.09375 12.65625 C 1.695312 12.988281 1.191406 13.238281 0.6875 13.355469 C 0.210938 13.46875 -0.0859375 13.945312 0.0234375 14.421875 C 0.132812 14.902344 0.613281 15.199219 1.089844 15.085938 C 1.769531 14.929688 2.335938 14.628906 2.707031 14.390625 C 3.511719 14.824219 4.414062 15.113281 5.332031 15.113281 C 6.21875 15.113281 7.015625 14.835938 7.566406 14.585938 C 7.726562 14.511719 7.875 14.441406 8 14.371094 C 8.125 14.4375 8.269531 14.515625 8.433594 14.585938 C 8.984375 14.835938 9.78125 15.113281 10.667969 15.113281 C 11.585938 15.113281 12.488281 14.824219 13.292969 14.394531 C 13.664062 14.628906 14.230469 14.929688 14.910156 15.089844 C 15.386719 15.199219 15.867188 14.902344 15.976562 14.425781 C 16.085938 13.949219 15.789062 13.46875 15.3125 13.359375 C 14.808594 13.242188 14.308594 12.988281 13.90625 12.660156 C 13.597656 12.398438 13.148438 12.378906 12.816406 12.613281 C 12.207031 13.035156 11.414062 13.332031 10.667969 13.332031 Z M 10.667969 13.332031 "/>
</g>
</svg>
