<?xml version="1.0" encoding="UTF-8"?>
<svg xmlns="http://www.w3.org/2000/svg" xmlns:xlink="http://www.w3.org/1999/xlink" width="16px" height="16px" viewBox="0 0 16 16" version="1.1">
<g id="surface1">
<path style=" stroke:none;fill-rule:nonzero;fill:rgb(95.686275%,69.411765%,21.176471%);fill-opacity:1;" d="M 7.609375 1.496094 L 13.601562 4.867188 L 13.601562 11.132812 L 8 14.28125 L 2.398438 11.132812 L 2.398438 4.867188 L 8.390625 1.496094 C 8.777344 1.28125 8.914062 0.792969 8.695312 0.40625 C 8.480469 0.0234375 7.992188 -0.113281 7.609375 0.101562 L 1.207031 3.703125 C 0.957031 3.84375 0.800781 4.113281 0.800781 4.398438 L 0.800781 11.601562 C 0.800781 11.886719 0.957031 12.15625 1.207031 12.296875 L 7.609375 15.898438 C 7.851562 16.035156 8.148438 16.035156 8.390625 15.898438 L 14.792969 12.296875 C 15.042969 12.15625 15.199219 11.886719 15.199219 11.601562 L 15.199219 4.398438 C 15.199219 4.113281 15.042969 3.84375 14.792969 3.703125 L 8.390625 0.101562 C 8.007812 -0.113281 7.519531 0.0234375 7.304688 0.40625 C 7.085938 0.792969 7.222656 1.28125 7.609375 1.496094 Z M 7.609375 1.496094 "/>
<path style=" stroke:none;fill-rule:nonzero;fill:rgb(95.686275%,69.411765%,21.176471%);fill-opacity:1;" d="M 8.390625 8.695312 L 14.792969 5.097656 C 15.175781 4.878906 15.3125 4.394531 15.097656 4.007812 C 14.878906 3.621094 14.390625 3.484375 14.007812 3.703125 L 7.609375 7.304688 C 7.222656 7.519531 7.085938 8.007812 7.304688 8.390625 C 7.519531 8.777344 8.007812 8.914062 8.390625 8.695312 "/>
<path style=" stroke:none;fill-rule:nonzero;fill:rgb(95.686275%,69.411765%,21.176471%);fill-opacity:1;" d="M 5.375 6.925781 L 11.453125 3.246094 C 11.832031 3.015625 11.953125 2.523438 11.722656 2.144531 C 11.496094 1.765625 11.003906 1.648438 10.625 1.875 L 4.546875 5.554688 C 4.167969 5.785156 4.046875 6.277344 4.277344 6.65625 C 4.503906 7.03125 4.996094 7.152344 5.375 6.925781 "/>
<path style=" stroke:none;fill-rule:nonzero;fill:rgb(95.686275%,69.411765%,21.176471%);fill-opacity:1;" d="M 7.199219 8 L 7.199219 15.199219 C 7.199219 15.640625 7.558594 16 8 16 C 8.441406 16 8.800781 15.640625 8.800781 15.199219 L 8.800781 8 C 8.800781 7.558594 8.441406 7.199219 8 7.199219 C 7.558594 7.199219 7.199219 7.558594 7.199219 8 "/>
<path style=" stroke:none;fill-rule:nonzero;fill:rgb(95.686275%,69.411765%,21.176471%);fill-opacity:1;" d="M 8.390625 7.300781 L 1.992188 3.703125 C 1.609375 3.484375 1.121094 3.621094 0.902344 4.007812 C 0.6875 4.394531 0.824219 4.878906 1.207031 5.097656 L 7.609375 8.695312 C 7.992188 8.914062 8.480469 8.777344 8.695312 8.390625 C 8.914062 8.007812 8.777344 7.519531 8.390625 7.300781 "/>
</g>
</svg>
