<?xml version="1.0" encoding="UTF-8"?>
<svg xmlns="http://www.w3.org/2000/svg" xmlns:xlink="http://www.w3.org/1999/xlink" width="16px" height="16px" viewBox="0 0 16 16" version="1.1">
<g id="surface1">
<path style=" stroke:none;fill-rule:nonzero;fill:rgb(1.176471%,66.274512%,95.686275%);fill-opacity:1;" d="M 7.484375 2.828125 C 7.792969 2.609375 8.207031 2.609375 8.515625 2.828125 C 9.140625 3.261719 9.902344 3.554688 10.667969 3.554688 C 11.414062 3.554688 12.207031 3.253906 12.816406 2.828125 C 13.148438 2.59375 13.597656 2.613281 13.90625 2.875 C 14.304688 3.207031 14.808594 3.460938 15.3125 3.578125 C 15.789062 3.6875 16.085938 4.164062 15.976562 4.644531 C 15.867188 5.121094 15.386719 5.417969 14.910156 5.308594 C 14.230469 5.148438 13.664062 4.847656 13.292969 4.613281 C 12.488281 5.046875 11.585938 5.332031 10.667969 5.332031 C 9.78125 5.332031 8.984375 5.058594 8.433594 4.808594 C 8.273438 4.734375 8.125 4.660156 8 4.59375 C 7.875 4.660156 7.730469 4.734375 7.566406 4.808594 C 7.015625 5.058594 6.21875 5.332031 5.332031 5.332031 C 4.414062 5.332031 3.511719 5.046875 2.707031 4.617188 C 2.335938 4.847656 1.769531 5.152344 1.089844 5.308594 C 0.613281 5.421875 0.132812 5.125 0.0234375 4.644531 C -0.0859375 4.167969 0.210938 3.691406 0.6875 3.578125 C 1.1875 3.460938 1.691406 3.207031 2.089844 2.875 C 2.398438 2.613281 2.847656 2.597656 3.179688 2.828125 C 3.796875 3.253906 4.585938 3.554688 5.332031 3.554688 C 6.097656 3.554688 6.859375 3.261719 7.484375 2.828125 Z M 8.515625 10.832031 C 9.140625 11.261719 9.902344 11.554688 10.667969 11.554688 C 11.414062 11.554688 12.207031 11.257812 12.816406 10.832031 C 13.148438 10.59375 13.597656 10.613281 13.90625 10.878906 C 14.304688 11.207031 14.808594 11.460938 15.3125 11.578125 C 15.789062 11.6875 16.085938 12.167969 15.976562 12.644531 C 15.867188 13.121094 15.386719 13.421875 14.910156 13.308594 C 14.230469 13.152344 13.664062 12.851562 13.292969 12.613281 C 12.488281 13.046875 11.585938 13.335938 10.667969 13.335938 C 9.78125 13.335938 8.984375 13.058594 8.433594 12.808594 C 8.273438 12.734375 8.125 12.660156 8 12.59375 C 7.875 12.660156 7.730469 12.738281 7.566406 12.808594 C 7.015625 13.058594 6.21875 13.335938 5.332031 13.335938 C 4.414062 13.335938 3.511719 13.046875 2.707031 12.617188 C 2.335938 12.851562 1.769531 13.152344 1.089844 13.3125 C 0.613281 13.421875 0.132812 13.125 0.0234375 12.648438 C -0.0859375 12.171875 0.210938 11.691406 0.6875 11.582031 C 1.191406 11.464844 1.691406 11.210938 2.09375 10.882812 C 2.402344 10.621094 2.851562 10.601562 3.183594 10.832031 C 3.796875 11.257812 4.585938 11.554688 5.332031 11.554688 C 6.097656 11.554688 6.859375 11.261719 7.484375 10.832031 C 7.792969 10.613281 8.207031 10.613281 8.515625 10.832031 Z M 8.515625 6.832031 C 9.140625 7.261719 9.902344 7.554688 10.667969 7.554688 C 11.414062 7.554688 12.207031 7.253906 12.816406 6.832031 C 13.148438 6.59375 13.597656 6.613281 13.90625 6.878906 C 14.304688 7.207031 14.808594 7.460938 15.3125 7.578125 C 15.789062 7.6875 16.085938 8.167969 15.976562 8.644531 C 15.867188 9.121094 15.386719 9.417969 14.910156 9.308594 C 14.230469 9.148438 13.664062 8.851562 13.292969 8.613281 C 12.488281 9.046875 11.585938 9.332031 10.667969 9.332031 C 9.78125 9.332031 8.984375 9.058594 8.433594 8.808594 C 8.273438 8.734375 8.125 8.660156 8 8.59375 C 7.875 8.660156 7.730469 8.734375 7.566406 8.808594 C 7.015625 9.058594 6.21875 9.332031 5.332031 9.332031 C 4.414062 9.332031 3.511719 9.046875 2.707031 8.617188 C 2.335938 8.851562 1.769531 9.152344 1.089844 9.3125 C 0.613281 9.421875 0.132812 9.125 0.0234375 8.648438 C -0.0859375 8.167969 0.210938 7.691406 0.6875 7.582031 C 1.191406 7.464844 1.691406 7.210938 2.09375 6.878906 C 2.402344 6.617188 2.851562 6.601562 3.183594 6.832031 C 3.796875 7.253906 4.585938 7.554688 5.332031 7.554688 C 6.097656 7.554688 6.859375 7.261719 7.484375 6.832031 C 7.792969 6.609375 8.207031 6.609375 8.515625 6.832031 Z M 8.515625 6.832031 "/>
</g>
</svg>
