<?xml version="1.0" encoding="UTF-8"?>
<svg xmlns="http://www.w3.org/2000/svg" xmlns:xlink="http://www.w3.org/1999/xlink" width="16px" height="16px" viewBox="0 0 16 16" version="1.1">
<g id="surface1">
<path style=" stroke:none;fill-rule:nonzero;fill:rgb(95.686275%,26.274511%,21.176471%);fill-opacity:1;" d="M 9.601562 4 L 3.734375 4 L 3.734375 9.066406 L 6.398438 9.066406 L 6.398438 12 L 12.265625 12 L 12.265625 6.933594 L 9.601562 6.933594 Z M 4.800781 8 L 4.800781 5.066406 L 8.535156 5.066406 L 8.535156 8 Z M 11.199219 8 L 11.199219 10.933594 L 7.464844 10.933594 L 7.464844 9.070312 L 9.601562 9.070312 L 9.601562 8 Z M 11.199219 8 "/>
<path style=" stroke:none;fill-rule:nonzero;fill:rgb(95.686275%,26.274511%,21.176471%);fill-opacity:1;" d="M 16 3.199219 L 16 0 L 12.800781 0 L 12.800781 1.066406 L 3.199219 1.066406 L 3.199219 0 L 0 0 L 0 3.199219 L 1.066406 3.199219 L 1.066406 12.800781 L 0 12.800781 L 0 16 L 3.199219 16 L 3.199219 14.933594 L 12.800781 14.933594 L 12.800781 16 L 16 16 L 16 12.800781 L 14.933594 12.800781 L 14.933594 3.199219 Z M 13.867188 1.066406 L 14.929688 1.066406 L 14.929688 2.132812 L 13.867188 2.132812 Z M 1.066406 1.066406 L 2.132812 1.066406 L 2.132812 2.132812 L 1.066406 2.132812 Z M 2.132812 14.933594 L 1.066406 14.933594 L 1.066406 13.867188 L 2.132812 13.867188 Z M 14.933594 14.933594 L 13.867188 14.933594 L 13.867188 13.867188 L 14.933594 13.867188 Z M 13.867188 12.800781 L 12.800781 12.800781 L 12.800781 13.867188 L 3.199219 13.867188 L 3.199219 12.800781 L 2.132812 12.800781 L 2.132812 3.199219 L 3.199219 3.199219 L 3.199219 2.132812 L 12.800781 2.132812 L 12.800781 3.199219 L 13.867188 3.199219 Z M 13.867188 12.800781 "/>
</g>
</svg>
