<?xml version="1.0" encoding="UTF-8"?>
<svg xmlns="http://www.w3.org/2000/svg" xmlns:xlink="http://www.w3.org/1999/xlink" width="16px" height="16px" viewBox="0 0 16 16" version="1.1">
<g id="surface1">
<path style=" stroke:none;fill-rule:nonzero;fill:rgb(95.686275%,26.274511%,21.176471%);fill-opacity:1;" d="M 13.25 2.941406 C 13.25 2.351562 12.769531 1.867188 12.175781 1.867188 C 11.585938 1.867188 11.105469 2.351562 11.105469 2.941406 C 11.105469 3.53125 11.585938 4.015625 12.175781 4.015625 C 12.769531 4.015625 13.25 3.53125 13.25 2.941406 Z M 12.175781 3.261719 C 12 3.261719 11.855469 3.117188 11.855469 2.941406 C 11.855469 2.765625 12 2.621094 12.175781 2.621094 C 12.355469 2.621094 12.496094 2.765625 12.496094 2.941406 C 12.496094 3.117188 12.355469 3.261719 12.175781 3.261719 Z M 12.175781 3.261719 "/>
<path style=" stroke:none;fill-rule:nonzero;fill:rgb(95.686275%,26.274511%,21.176471%);fill-opacity:1;" d="M 15.765625 1.695312 C 15.695312 1.496094 15.480469 1.394531 15.285156 1.464844 L 14.890625 1.605469 C 14.394531 0.652344 13.394531 0 12.253906 0 C 12.242188 0 12.234375 0 12.226562 0 C 11.164062 0.0078125 10.179688 0.589844 9.65625 1.519531 C 9.074219 2.558594 8.417969 3.476562 7.707031 4.246094 C 5.605469 6.515625 2.597656 9.691406 2.492188 9.800781 L 0.425781 11.902344 C 0.167969 12.164062 0.140625 12.550781 0.355469 12.847656 C 0.570312 13.144531 0.949219 13.238281 1.277344 13.074219 C 2.613281 12.40625 4.1875 12.351562 5.59375 12.917969 C 6.289062 13.195312 7.023438 13.355469 7.777344 13.382812 L 8.5625 15.742188 C 8.617188 15.898438 8.761719 16 8.921875 16 C 8.960938 16 9 15.992188 9.039062 15.980469 C 9.238281 15.914062 9.34375 15.703125 9.277344 15.503906 L 8.566406 13.371094 C 8.765625 13.355469 8.964844 13.328125 9.160156 13.296875 L 9.976562 15.742188 C 10.027344 15.898438 10.175781 16 10.332031 16 C 10.371094 16 10.414062 15.992188 10.453125 15.980469 C 10.648438 15.914062 10.757812 15.703125 10.691406 15.503906 L 9.898438 13.125 C 10.953125 12.816406 11.917969 12.246094 12.71875 11.441406 C 13.964844 10.1875 14.648438 8.523438 14.636719 6.761719 C 14.632812 6.175781 14.554688 5.59375 14.398438 5.035156 C 14.941406 4.46875 15.238281 3.710938 15.226562 2.921875 C 15.222656 2.714844 15.195312 2.511719 15.152344 2.3125 L 15.539062 2.175781 C 15.734375 2.105469 15.835938 1.890625 15.765625 1.695312 Z M 14.472656 2.933594 C 14.484375 3.585938 14.210938 4.207031 13.722656 4.640625 C 13.609375 4.738281 13.566406 4.894531 13.613281 5.035156 C 13.789062 5.59375 13.882812 6.175781 13.886719 6.765625 C 13.894531 8.328125 13.289062 9.796875 12.183594 10.910156 C 11.898438 11.199219 11.589844 11.449219 11.261719 11.667969 C 11.097656 11.152344 11.015625 10.617188 11.015625 10.070312 C 11.015625 8.914062 11.382812 7.816406 12.082031 6.902344 C 12.207031 6.734375 12.175781 6.5 12.011719 6.375 C 11.84375 6.246094 11.609375 6.28125 11.480469 6.445312 C 10.683594 7.496094 10.261719 8.746094 10.261719 10.070312 C 10.261719 10.75 10.375 11.414062 10.597656 12.050781 C 9.8125 12.433594 8.945312 12.636719 8.050781 12.636719 C 7.296875 12.636719 6.566406 12.496094 5.875 12.21875 C 5.140625 11.921875 4.371094 11.777344 3.601562 11.777344 C 2.71875 11.777344 1.839844 11.96875 1.035156 12.355469 L 3.03125 10.328125 C 3.035156 10.324219 3.035156 10.324219 3.039062 10.320312 C 3.070312 10.289062 6.128906 7.058594 8.257812 4.757812 C 9.011719 3.945312 9.703125 2.980469 10.316406 1.890625 C 10.703125 1.195312 11.441406 0.757812 12.234375 0.753906 C 13.058594 0.746094 13.785156 1.195312 14.175781 1.863281 L 14.0625 1.90625 C 13.867188 1.972656 13.765625 2.191406 13.835938 2.386719 C 13.890625 2.539062 14.035156 2.636719 14.1875 2.636719 C 14.230469 2.636719 14.273438 2.628906 14.316406 2.613281 L 14.4375 2.570312 C 14.457031 2.6875 14.472656 2.8125 14.472656 2.933594 Z M 14.472656 2.933594 "/>
<path style=" stroke:none;fill-rule:nonzero;fill:rgb(95.686275%,26.274511%,21.176471%);fill-opacity:1;" d="M 9.679688 6.558594 C 9.472656 6.558594 9.304688 6.726562 9.304688 6.933594 C 9.304688 6.949219 9.304688 6.964844 9.300781 6.976562 C 9.289062 7.808594 8.957031 8.597656 8.363281 9.195312 C 7.769531 9.792969 6.984375 10.128906 6.152344 10.148438 C 5.816406 10.15625 5.488281 10.113281 5.171875 10.019531 L 8.320312 6.554688 C 8.460938 6.402344 8.449219 6.164062 8.292969 6.023438 C 8.140625 5.882812 7.902344 5.894531 7.761719 6.050781 L 4.246094 9.921875 C 4.167969 10.007812 4.132812 10.128906 4.15625 10.246094 C 4.179688 10.363281 4.253906 10.460938 4.363281 10.511719 C 4.902344 10.773438 5.476562 10.902344 6.078125 10.902344 C 6.109375 10.902344 6.136719 10.902344 6.167969 10.902344 C 7.199219 10.878906 8.167969 10.460938 8.898438 9.726562 C 9.628906 8.988281 10.039062 8.015625 10.054688 6.988281 C 10.054688 6.972656 10.054688 6.953125 10.054688 6.9375 C 10.054688 6.730469 9.886719 6.558594 9.679688 6.558594 Z M 9.679688 6.558594 "/>
<path style=" stroke:none;fill-rule:nonzero;fill:rgb(95.686275%,26.274511%,21.176471%);fill-opacity:1;" d="M 12.683594 5.257812 C 12.5625 5.351562 12.441406 5.445312 12.324219 5.546875 C 12.167969 5.683594 12.152344 5.921875 12.289062 6.078125 C 12.363281 6.164062 12.464844 6.207031 12.570312 6.207031 C 12.660156 6.207031 12.746094 6.175781 12.820312 6.117188 C 12.917969 6.027344 13.023438 5.941406 13.132812 5.863281 C 13.300781 5.738281 13.332031 5.503906 13.210938 5.335938 C 13.085938 5.167969 12.851562 5.136719 12.683594 5.257812 Z M 12.683594 5.257812 "/>
</g>
</svg>
