<?xml version="1.0" encoding="UTF-8"?>
<svg xmlns="http://www.w3.org/2000/svg" xmlns:xlink="http://www.w3.org/1999/xlink" width="16px" height="16px" viewBox="0 0 16 16" version="1.1">
<g id="surface1">
<path style=" stroke:none;fill-rule:nonzero;fill:rgb(91.372549%,11.764706%,38.823529%);fill-opacity:1;" d="M 9.972656 4.886719 C 9.917969 4.8125 9.855469 4.746094 9.792969 4.683594 C 9.554688 4.445312 9.265625 4.265625 8.945312 4.15625 L 7.894531 3.816406 C 7.816406 3.789062 7.746094 3.734375 7.695312 3.664062 C 7.644531 3.59375 7.617188 3.511719 7.617188 3.425781 C 7.617188 3.339844 7.644531 3.257812 7.695312 3.1875 C 7.746094 3.117188 7.816406 3.0625 7.894531 3.035156 L 8.945312 2.695312 C 9.261719 2.585938 9.546875 2.40625 9.78125 2.167969 C 10.007812 1.9375 10.179688 1.65625 10.285156 1.351562 L 10.292969 1.324219 L 10.636719 0.277344 C 10.664062 0.195312 10.71875 0.125 10.785156 0.078125 C 10.855469 0.0273438 10.941406 0 11.027344 0 C 11.113281 0 11.195312 0.0273438 11.265625 0.078125 C 11.335938 0.125 11.390625 0.195312 11.417969 0.277344 L 11.757812 1.324219 C 11.863281 1.644531 12.042969 1.933594 12.28125 2.171875 C 12.519531 2.410156 12.808594 2.589844 13.128906 2.695312 L 14.179688 3.035156 L 14.199219 3.039062 C 14.28125 3.070312 14.351562 3.121094 14.398438 3.191406 C 14.449219 3.261719 14.476562 3.34375 14.476562 3.429688 C 14.476562 3.515625 14.449219 3.601562 14.398438 3.671875 C 14.351562 3.742188 14.28125 3.792969 14.199219 3.820312 L 13.148438 4.164062 C 12.832031 4.269531 12.539062 4.449219 12.300781 4.6875 C 12.066406 4.921875 11.886719 5.214844 11.78125 5.53125 L 11.4375 6.582031 L 11.429688 6.605469 C 11.398438 6.675781 11.347656 6.738281 11.285156 6.78125 C 11.214844 6.832031 11.132812 6.859375 11.046875 6.859375 C 10.960938 6.859375 10.878906 6.832031 10.808594 6.78125 C 10.738281 6.730469 10.683594 6.660156 10.65625 6.582031 L 10.3125 5.53125 C 10.238281 5.296875 10.121094 5.078125 9.972656 4.886719 Z M 15.835938 7.78125 L 15.25 7.59375 C 15.074219 7.535156 14.914062 7.433594 14.78125 7.300781 C 14.648438 7.171875 14.550781 7.007812 14.492188 6.832031 L 14.300781 6.25 L 14.214844 6.136719 L 14.082031 6.09375 L 13.949219 6.136719 L 13.867188 6.25 L 13.675781 6.832031 C 13.617188 7.007812 13.519531 7.167969 13.390625 7.300781 C 13.261719 7.429688 13.101562 7.53125 12.925781 7.59375 L 12.34375 7.78125 L 12.230469 7.867188 L 12.191406 8 L 12.230469 8.132812 L 12.34375 8.214844 L 12.925781 8.40625 C 13.105469 8.464844 13.265625 8.5625 13.398438 8.695312 C 13.53125 8.828125 13.628906 8.992188 13.6875 9.167969 L 13.878906 9.75 L 13.960938 9.863281 L 14.09375 9.90625 L 14.226562 9.863281 L 14.3125 9.75 L 14.5 9.167969 C 14.5625 8.992188 14.660156 8.828125 14.792969 8.699219 C 14.925781 8.566406 15.085938 8.464844 15.261719 8.40625 L 15.847656 8.21875 L 15.957031 8.132812 L 16 8 L 15.957031 7.867188 L 15.847656 7.785156 Z M 7.070312 2.71875 C 7.21875 2.519531 7.421875 2.371094 7.652344 2.285156 L 6.09375 2.285156 C 5.675781 2.285156 5.332031 2.628906 5.332031 3.046875 C 5.332031 3.46875 5.675781 3.808594 6.09375 3.808594 L 6.929688 3.808594 C 6.882812 3.679688 6.859375 3.542969 6.855469 3.40625 C 6.859375 3.160156 6.933594 2.921875 7.070312 2.71875 Z M 0.761719 7.617188 C 1.183594 7.617188 1.523438 7.960938 1.523438 8.382812 L 1.523438 9.90625 C 1.523438 10.324219 1.183594 10.667969 0.761719 10.667969 C 0.339844 10.667969 0 10.324219 0 9.90625 L 0 8.382812 C 0 7.960938 0.339844 7.617188 0.761719 7.617188 Z M 8.382812 15.238281 C 8.382812 15.660156 8.039062 16 7.617188 16 L 6.09375 16 C 5.675781 16 5.332031 15.660156 5.332031 15.238281 C 5.332031 14.816406 5.675781 14.476562 6.09375 14.476562 L 7.617188 14.476562 C 8.039062 14.476562 8.382812 14.816406 8.382812 15.238281 Z M 2.285156 2.285156 C 2.707031 2.285156 3.046875 2.625 3.046875 3.046875 C 3.046875 3.46875 2.707031 3.808594 2.285156 3.808594 C 1.863281 3.808594 1.523438 4.152344 1.523438 4.570312 C 1.523438 4.992188 1.183594 5.332031 0.761719 5.332031 C 0.339844 5.332031 0 4.992188 0 4.570312 C 0 3.308594 1.023438 2.285156 2.285156 2.285156 Z M 2.285156 16 C 2.707031 16 3.046875 15.660156 3.046875 15.238281 C 3.046875 14.816406 2.707031 14.476562 2.285156 14.476562 C 1.863281 14.476562 1.523438 14.136719 1.523438 13.714844 C 1.523438 13.292969 1.183594 12.953125 0.761719 12.953125 C 0.339844 12.953125 0 13.292969 0 13.714844 C 0 14.976562 1.023438 16 2.285156 16 Z M 10.667969 15.238281 C 10.667969 15.660156 11.007812 16 11.429688 16 C 12.691406 16 13.714844 14.976562 13.714844 13.714844 C 13.714844 13.292969 13.371094 12.953125 12.953125 12.953125 C 12.53125 12.953125 12.191406 13.292969 12.191406 13.714844 C 12.191406 14.136719 11.847656 14.476562 11.429688 14.476562 C 11.007812 14.476562 10.667969 14.816406 10.667969 15.238281 Z M 10.667969 15.238281 "/>
</g>
</svg>
