<?xml version="1.0" encoding="UTF-8"?>
<svg xmlns="http://www.w3.org/2000/svg" xmlns:xlink="http://www.w3.org/1999/xlink" width="16px" height="16px" viewBox="0 0 16 16" version="1.1">
<g id="surface1">
<path style=" stroke:none;fill-rule:nonzero;fill:rgb(95.686275%,26.274511%,21.176471%);fill-opacity:1;" d="M 7.617188 12.570312 L 2.285156 12.570312 C 1.863281 12.570312 1.523438 12.230469 1.523438 11.808594 L 1.523438 4.953125 C 1.523438 4.53125 1.867188 4.191406 2.285156 4.191406 L 3.046875 4.191406 C 4.308594 4.191406 5.332031 3.167969 5.332031 1.90625 L 9.90625 1.90625 C 9.90625 3.167969 10.929688 4.191406 12.191406 4.191406 L 12.953125 4.191406 C 13.371094 4.191406 13.714844 4.53125 13.714844 4.953125 L 13.714844 7.617188 C 13.714844 8.039062 14.054688 8.382812 14.476562 8.382812 C 14.898438 8.382812 15.238281 8.039062 15.238281 7.617188 L 15.238281 4.953125 C 15.238281 3.691406 14.214844 2.667969 12.953125 2.667969 L 12.191406 2.667969 C 11.769531 2.667969 11.429688 2.324219 11.429688 1.90625 C 11.429688 1.0625 10.746094 0.382812 9.90625 0.382812 L 5.332031 0.382812 C 4.492188 0.382812 3.808594 1.0625 3.808594 1.90625 C 3.808594 2.324219 3.46875 2.667969 3.046875 2.667969 L 2.285156 2.667969 C 1.023438 2.667969 0 3.691406 0 4.953125 L 0 11.808594 C 0 13.070312 1.023438 14.09375 2.285156 14.09375 L 7.617188 14.09375 C 8.039062 14.09375 8.382812 13.753906 8.382812 13.332031 C 8.382812 12.914062 8.039062 12.570312 7.617188 12.570312 Z M 7.617188 12.570312 "/>
<path style=" stroke:none;fill-rule:nonzero;fill:rgb(95.686275%,26.274511%,21.176471%);fill-opacity:1;" d="M 7.617188 10.285156 L 7.617188 11.046875 C 9.300781 11.046875 10.667969 9.683594 10.667969 8 C 10.664062 6.316406 9.300781 4.953125 7.617188 4.953125 C 5.9375 4.953125 4.570312 6.316406 4.570312 8 C 4.570312 9.683594 5.9375 11.046875 7.617188 11.046875 L 7.617188 9.523438 C 6.777344 9.523438 6.097656 8.839844 6.09375 8 C 6.097656 7.160156 6.777344 6.476562 7.617188 6.476562 C 8.460938 6.476562 9.140625 7.160156 9.144531 8 C 9.140625 8.839844 8.460938 9.523438 7.617188 9.523438 Z M 7.617188 10.285156 "/>
<path style=" stroke:none;fill-rule:nonzero;fill:rgb(95.686275%,26.274511%,21.176471%);fill-opacity:1;" d="M 13.714844 14.855469 L 13.714844 10.285156 C 13.714844 9.863281 13.375 9.523438 12.953125 9.523438 C 12.53125 9.523438 12.191406 9.863281 12.191406 10.285156 L 12.191406 14.855469 C 12.191406 15.277344 12.53125 15.617188 12.953125 15.617188 C 13.375 15.617188 13.714844 15.277344 13.714844 14.855469 "/>
<path style=" stroke:none;fill-rule:nonzero;fill:rgb(95.686275%,26.274511%,21.176471%);fill-opacity:1;" d="M 15.777344 12.03125 L 13.492188 9.746094 C 13.195312 9.449219 12.710938 9.449219 12.414062 9.746094 L 10.128906 12.03125 C 9.832031 12.332031 9.832031 12.8125 10.128906 13.109375 C 10.425781 13.40625 10.90625 13.40625 11.207031 13.109375 L 12.953125 11.363281 L 14.699219 13.109375 C 14.996094 13.40625 15.480469 13.40625 15.777344 13.109375 C 16.074219 12.8125 16.074219 12.332031 15.777344 12.03125 Z M 15.777344 12.03125 "/>
</g>
</svg>
