<?xml version="1.0" encoding="UTF-8"?>
<svg xmlns="http://www.w3.org/2000/svg" xmlns:xlink="http://www.w3.org/1999/xlink" width="16px" height="16px" viewBox="0 0 16 16" version="1.1">
<g id="surface1">
<path style=" stroke:none;fill-rule:nonzero;fill:rgb(95.686275%,26.274511%,21.176471%);fill-opacity:1;" d="M 1.5 15 C 1.222656 15 1 15.222656 1 15.5 C 1 15.777344 1.222656 16 1.5 16 L 14.5 16 C 14.777344 16 15 15.777344 15 15.5 C 15 15.222656 14.777344 15 14.5 15 L 13 15 L 13 2.5 C 13 1.671875 12.328125 1 11.5 1 L 11 1 L 11 0.5 C 11 0.222656 10.777344 0 10.5 0 L 10.429688 0.00390625 L 3.429688 1.003906 C 3.183594 1.039062 3 1.25 3 1.5 L 3 15 Z M 11 2 L 11.5 2 C 11.777344 2 12 2.222656 12 2.5 L 12 15 L 11 15 Z M 8.5 10 C 8.222656 10 8 9.550781 8 9 C 8 8.449219 8.222656 8 8.5 8 C 8.777344 8 9 8.449219 9 9 C 9 9.550781 8.777344 10 8.5 10 Z M 8.5 10 "/>
</g>
</svg>
