<?xml version="1.0" encoding="UTF-8"?>
<svg xmlns="http://www.w3.org/2000/svg" xmlns:xlink="http://www.w3.org/1999/xlink" width="16px" height="16px" viewBox="0 0 16 16" version="1.1">
<g id="surface1">
<path style=" stroke:none;fill-rule:nonzero;fill:rgb(95.686275%,26.274511%,21.176471%);fill-opacity:1;" d="M 0.214844 6.660156 C -0.148438 6.164062 -0.0429688 5.46875 0.453125 5.105469 L 3.96875 2.515625 C 4.617188 2.035156 5.402344 1.777344 6.207031 1.777344 L 15.109375 1.777344 C 15.601562 1.777344 16 2.175781 16 2.667969 L 16 4.445312 C 16 4.9375 15.601562 5.332031 15.109375 5.332031 L 14.089844 5.332031 L 12.839844 6.332031 C 12.210938 6.839844 11.429688 7.109375 10.621094 7.109375 L 6.222656 7.109375 C 5.730469 7.109375 5.332031 6.714844 5.332031 6.222656 C 5.332031 5.730469 5.730469 5.332031 6.222656 5.332031 L 8.445312 5.332031 C 8.6875 5.332031 8.890625 5.132812 8.890625 4.890625 C 8.890625 4.644531 8.6875 4.445312 8.445312 4.445312 L 5.09375 4.445312 L 1.769531 6.894531 C 1.273438 7.257812 0.582031 7.152344 0.214844 6.660156 Z M 10.621094 5.332031 L 10.648438 5.332031 C 10.640625 5.332031 10.628906 5.332031 10.621094 5.332031 Z M 15.785156 9.339844 C 16.148438 9.835938 16.042969 10.53125 15.546875 10.894531 L 12.03125 13.484375 C 11.378906 13.964844 10.597656 14.222656 9.789062 14.222656 L 0.890625 14.222656 C 0.398438 14.222656 0 13.824219 0 13.332031 L 0 11.554688 C 0 11.0625 0.398438 10.667969 0.890625 10.667969 L 1.910156 10.667969 L 3.15625 9.667969 C 3.789062 9.160156 4.570312 8.890625 5.378906 8.890625 L 9.777344 8.890625 C 10.269531 8.890625 10.667969 9.285156 10.667969 9.777344 C 10.667969 10.269531 10.269531 10.667969 9.777344 10.667969 L 7.554688 10.667969 C 7.3125 10.667969 7.109375 10.867188 7.109375 11.109375 C 7.109375 11.355469 7.3125 11.554688 7.554688 11.554688 L 10.90625 11.554688 L 14.230469 9.105469 C 14.726562 8.742188 15.417969 8.847656 15.785156 9.339844 Z M 5.378906 10.667969 L 5.351562 10.667969 C 5.359375 10.667969 5.371094 10.667969 5.378906 10.667969 Z M 5.378906 10.667969 "/>
</g>
</svg>
