<svg xmlns="http://www.w3.org/2000/svg" width="50" height="50" viewBox="0 0 50 50" version="1.1"><path d="M 29.773 9.750 C 28.928 10.713, 27.900 12.600, 27.489 13.944 C 26.124 18.409, 23.131 19.945, 17 19.328 C 12.330 18.858, 11.226 19.078, 9.684 20.789 C 6.949 23.823, 7.754 29.747, 11.255 32.350 C 13.715 34.179, 14.385 34.263, 17.508 33.133 C 20.637 32.002, 21.316 32.089, 23.944 33.960 C 25.560 35.111, 27.187 37.053, 27.559 38.276 C 28.763 42.227, 31.098 44, 35.098 44 C 37.879 44, 39.300 43.409, 40.443 41.777 C 45.285 34.865, 37.927 25.906, 30.974 30.248 C 29.341 31.268, 28.474 31.216, 26.238 29.965 C 22.124 27.664, 22.202 24.745, 26.436 22.464 C 29.209 20.971, 30.225 20.825, 31.182 21.782 C 33.009 23.609, 36.408 23.253, 39.365 20.927 C 42.619 18.368, 43.055 12.265, 40.171 9.655 C 37.743 7.457, 31.739 7.512, 29.773 9.750" stroke="none" fill="#f2f204" fill-rule="evenodd"/><path d="" stroke="none" fill="#fcfcfc" fill-rule="evenodd"/></svg>