<svg xmlns="http://www.w3.org/2000/svg" width="64" height="64" viewBox="0 0 64 64" version="1.1"><path d="M 37.376 8.462 C 36.377 11.066, 37.796 13, 40.706 13 C 43.189 13, 41.927 14.551, 28.487 28.022 C 14.138 42.406, 13.478 42.927, 12.990 40.272 C 12.595 38.121, 11.922 37.500, 9.990 37.500 C 7.511 37.500, 7.500 37.543, 7.500 47 L 7.500 56.500 17.320 56.787 L 27.140 57.074 26.820 54.287 C 26.563 52.046, 25.931 51.435, 23.594 51.169 C 20.812 50.851, 21.323 50.200, 35.594 35.896 C 49.860 21.596, 50.522 21.074, 51.005 23.728 C 51.394 25.863, 52.149 26.574, 54.292 26.820 L 57.074 27.140 56.787 17.320 L 56.500 7.500 47.233 7.212 C 39.636 6.976, 37.860 7.202, 37.376 8.462" stroke="none" fill="#ffec07" fill-rule="evenodd"/><path d="" stroke="none" fill="#fcfcfc" fill-rule="evenodd"/></svg>