<?xml version="1.0" encoding="UTF-8"?>
<svg xmlns="http://www.w3.org/2000/svg" xmlns:xlink="http://www.w3.org/1999/xlink" width="16px" height="16px" viewBox="0 0 16 16" version="1.1">
<g id="surface1">
<path style=" stroke:none;fill-rule:nonzero;fill:rgb(95.686275%,26.274511%,21.176471%);fill-opacity:1;" d="M 3.808594 10.675781 C 4.230469 10.675781 4.570312 10.335938 4.570312 9.914062 C 4.570312 9.492188 4.230469 9.148438 3.808594 9.148438 C 3.386719 9.148438 3.046875 9.492188 3.046875 9.914062 C 3.046875 10.335938 3.386719 10.675781 3.808594 10.675781 Z M 0 9.910156 C 0 10.332031 0.339844 10.671875 0.761719 10.671875 C 1.183594 10.671875 1.523438 10.332031 1.523438 9.910156 C 1.523438 9.488281 1.183594 9.148438 0.761719 9.148438 C 0.339844 9.148438 0 9.492188 0 9.910156 Z M 0 6.863281 C 0 7.285156 0.339844 7.625 0.761719 7.625 C 1.183594 7.625 1.523438 7.285156 1.523438 6.863281 C 1.523438 6.441406 1.183594 6.101562 0.761719 6.101562 C 0.339844 6.101562 0 6.441406 0 6.863281 Z M 0 3.8125 C 0 4.234375 0.339844 4.574219 0.761719 4.574219 C 1.183594 4.574219 1.523438 4.234375 1.523438 3.8125 C 1.523438 3.390625 1.183594 3.050781 0.761719 3.050781 C 0.339844 3.050781 0 3.394531 0 3.8125 Z M 0 0.765625 C 0 1.1875 0.339844 1.527344 0.761719 1.527344 C 1.183594 1.527344 1.523438 1.1875 1.523438 0.765625 C 1.523438 0.34375 1.179688 0.00390625 0.761719 0.00390625 C 0.34375 0.00390625 0 0.34375 0 0.765625 Z M 3.804688 0 C 3.382812 0 3.042969 0.339844 3.042969 0.761719 C 3.042969 1.183594 3.382812 1.523438 3.804688 1.523438 C 4.226562 1.523438 4.570312 1.183594 4.570312 0.761719 C 4.570312 0.339844 4.226562 0 3.804688 0 Z M 6.855469 0 C 6.433594 0 6.09375 0.339844 6.09375 0.761719 C 6.09375 1.183594 6.433594 1.523438 6.855469 1.523438 C 7.277344 1.523438 7.617188 1.183594 7.617188 0.761719 C 7.617188 0.339844 7.273438 0 6.855469 0 Z M 9.902344 0 C 9.480469 0 9.140625 0.339844 9.140625 0.761719 C 9.140625 1.183594 9.480469 1.523438 9.902344 1.523438 C 10.324219 1.523438 10.664062 1.183594 10.664062 0.761719 C 10.664062 0.339844 10.324219 0 9.902344 0 Z M 10.664062 3.808594 C 10.664062 3.386719 10.324219 3.046875 9.902344 3.046875 C 9.480469 3.046875 9.140625 3.386719 9.140625 3.808594 C 9.140625 4.230469 9.480469 4.570312 9.902344 4.570312 C 10.324219 4.570312 10.664062 4.230469 10.664062 3.808594 Z M 10.664062 3.808594 "/>
<path style=" stroke:none;fill-rule:nonzero;fill:rgb(95.686275%,26.274511%,21.176471%);fill-opacity:1;" d="M 13.714844 6.855469 L 13.714844 5.332031 C 13.714844 4.070312 12.695312 3.046875 11.429688 3.046875 L 5.335938 3.046875 C 4.074219 3.046875 3.054688 4.070312 3.054688 5.332031 L 3.054688 11.425781 C 3.054688 12.6875 4.074219 13.710938 5.335938 13.710938 L 6.863281 13.710938 C 7.285156 13.710938 7.625 13.367188 7.625 12.945312 C 7.625 12.523438 7.285156 12.183594 6.863281 12.183594 L 5.335938 12.183594 C 4.914062 12.183594 4.574219 11.84375 4.574219 11.421875 L 4.574219 5.328125 C 4.574219 4.90625 4.914062 4.566406 5.335938 4.566406 L 11.429688 4.566406 C 11.851562 4.566406 12.195312 4.90625 12.195312 5.328125 L 12.195312 6.851562 C 12.195312 7.273438 12.535156 7.617188 12.957031 7.617188 C 13.378906 7.617188 13.714844 7.277344 13.714844 6.855469 Z M 13.714844 6.855469 "/>
<path style=" stroke:none;fill-rule:nonzero;fill:rgb(95.686275%,26.274511%,21.176471%);fill-opacity:1;" d="M 8.140625 9.101562 L 13.253906 10.804688 L 11.851562 11.507812 C 11.699219 11.582031 11.585938 11.695312 11.507812 11.847656 L 10.808594 13.25 L 9.105469 8.136719 C 8.972656 7.738281 8.539062 7.523438 8.144531 7.65625 C 7.742188 7.789062 7.527344 8.222656 7.664062 8.617188 L 9.945312 15.476562 C 10.042969 15.769531 10.308594 15.972656 10.617188 15.992188 C 10.921875 16.015625 11.210938 15.851562 11.351562 15.574219 L 12.757812 12.753906 L 15.582031 11.34375 C 15.855469 11.207031 16.023438 10.914062 16 10.609375 C 15.976562 10.304688 15.773438 10.039062 15.480469 9.941406 L 8.625 7.65625 C 8.226562 7.523438 7.792969 7.738281 7.664062 8.136719 C 7.523438 8.539062 7.742188 8.972656 8.140625 9.101562 Z M 8.140625 9.101562 "/>
</g>
</svg>
