<?xml version="1.0" encoding="UTF-8"?>
<svg xmlns="http://www.w3.org/2000/svg" xmlns:xlink="http://www.w3.org/1999/xlink" width="16px" height="16px" viewBox="0 0 16 16" version="1.1">
<g id="surface1">
<path style=" stroke:none;fill-rule:nonzero;fill:rgb(95.686275%,26.274511%,21.176471%);fill-opacity:1;" d="M 4.445312 12.453125 C 4.933594 12.453125 5.335938 12.054688 5.335938 11.566406 C 5.335938 11.074219 4.9375 10.679688 4.445312 10.679688 C 3.957031 10.679688 3.558594 11.074219 3.558594 11.566406 C 3.554688 12.054688 3.953125 12.453125 4.445312 12.453125 Z M 0 11.5625 C 0 12.054688 0.398438 12.453125 0.886719 12.453125 C 1.378906 12.453125 1.773438 12.054688 1.773438 11.566406 C 1.773438 11.074219 1.378906 10.679688 0.886719 10.679688 C 0.398438 10.679688 0 11.070312 0 11.5625 Z M 0 8.007812 C 0 8.496094 0.398438 8.898438 0.886719 8.898438 C 1.378906 8.898438 1.773438 8.5 1.773438 8.007812 C 1.773438 7.519531 1.378906 7.121094 0.886719 7.121094 C 0.398438 7.121094 0 7.515625 0 8.007812 Z M 0 4.449219 C 0 4.941406 0.398438 5.339844 0.886719 5.339844 C 1.378906 5.339844 1.773438 4.945312 1.773438 4.453125 C 1.773438 3.960938 1.378906 3.566406 0.886719 3.566406 C 0.398438 3.566406 0 3.960938 0 4.449219 Z M 0 0.894531 C 0 1.382812 0.398438 1.78125 0.886719 1.78125 C 1.378906 1.78125 1.773438 1.382812 1.773438 0.894531 C 1.773438 0.402344 1.378906 0.0078125 0.886719 0.0078125 C 0.398438 0.0078125 0 0.398438 0 0.894531 Z M 4.441406 0 C 3.949219 0 3.550781 0.398438 3.550781 0.886719 C 3.550781 1.378906 3.945312 1.773438 4.4375 1.773438 C 4.929688 1.773438 5.324219 1.378906 5.324219 0.886719 C 5.332031 0.398438 4.929688 0 4.441406 0 Z M 7.996094 0 C 7.507812 0 7.105469 0.398438 7.105469 0.886719 C 7.105469 1.378906 7.503906 1.773438 7.992188 1.773438 C 8.484375 1.773438 8.882812 1.378906 8.882812 0.886719 C 8.886719 0.398438 8.492188 0 7.996094 0 Z M 11.554688 0 C 11.0625 0 10.664062 0.398438 10.664062 0.886719 C 10.664062 1.378906 11.058594 1.773438 11.550781 1.773438 C 12.039062 1.773438 12.4375 1.378906 12.4375 0.886719 C 12.445312 0.398438 12.046875 0 11.554688 0 Z M 12.445312 4.445312 C 12.445312 3.953125 12.046875 3.554688 11.554688 3.554688 C 11.066406 3.554688 10.667969 3.949219 10.667969 4.441406 C 10.667969 4.929688 11.066406 5.328125 11.554688 5.328125 C 12.046875 5.328125 12.445312 4.933594 12.445312 4.445312 Z M 12.445312 4.445312 "/>
<path style=" stroke:none;fill-rule:nonzero;fill:rgb(95.686275%,26.274511%,21.176471%);fill-opacity:1;" d="M 6.222656 4.445312 L 6.222656 5.332031 L 13.335938 5.332031 C 13.824219 5.332031 14.222656 5.730469 14.222656 6.21875 L 14.222656 13.332031 C 14.222656 13.820312 13.820312 14.21875 13.335938 14.21875 L 6.222656 14.21875 C 5.730469 14.21875 5.335938 13.820312 5.335938 13.332031 L 5.335938 6.21875 C 5.335938 5.726562 5.734375 5.332031 6.222656 5.332031 L 6.222656 3.554688 C 4.75 3.554688 3.554688 4.75 3.554688 6.222656 L 3.554688 13.335938 C 3.554688 14.804688 4.75 16 6.222656 16 L 13.335938 16 C 14.804688 16 16 14.804688 16 13.335938 L 16 6.222656 C 16 4.75 14.804688 3.554688 13.335938 3.554688 L 6.222656 3.554688 Z M 6.222656 4.445312 "/>
</g>
</svg>
