<?xml version="1.0" encoding="UTF-8"?>
<svg xmlns="http://www.w3.org/2000/svg" xmlns:xlink="http://www.w3.org/1999/xlink" width="16px" height="16px" viewBox="0 0 16 16" version="1.1">
<g id="surface1">
<path style=" stroke:none;fill-rule:nonzero;fill:rgb(23.529412%,79.607843%,9.803922%);fill-opacity:1;" d="M 0.890625 2.667969 L 1.777344 2.667969 C 1.777344 2.175781 2.175781 1.777344 2.667969 1.777344 L 13.332031 1.777344 C 13.824219 1.777344 14.222656 2.175781 14.222656 2.667969 L 14.222656 13.332031 C 14.21875 13.824219 13.824219 14.222656 13.332031 14.222656 L 2.667969 14.222656 C 2.175781 14.222656 1.777344 13.824219 1.777344 13.332031 L 1.777344 2.667969 L 0 2.667969 L 0 13.332031 C 0 14.804688 1.195312 16 2.667969 16 L 13.332031 16 C 14.804688 16 16 14.804688 16 13.332031 L 16 2.667969 C 16 1.195312 14.804688 0 13.332031 0 L 2.667969 0 C 1.195312 0 0 1.195312 0 2.667969 Z M 0.890625 2.667969 "/>
<path style=" stroke:none;fill-rule:nonzero;fill:rgb(23.529412%,79.607843%,9.803922%);fill-opacity:1;" d="M 3.554688 11.554688 L 3.554688 11.5625 C 3.554688 12.054688 3.953125 12.453125 4.445312 12.453125 C 4.933594 12.453125 5.332031 12.054688 5.332031 11.5625 L 5.332031 11.554688 C 5.332031 11.066406 4.933594 10.667969 4.445312 10.667969 C 3.953125 10.667969 3.554688 11.066406 3.554688 11.554688 "/>
<path style=" stroke:none;fill-rule:nonzero;fill:rgb(23.529412%,79.607843%,9.803922%);fill-opacity:1;" d="M 3.554688 8 L 3.554688 8.007812 C 3.554688 8.5 3.953125 8.898438 4.445312 8.898438 C 4.933594 8.898438 5.332031 8.5 5.332031 8.007812 L 5.332031 8 C 5.332031 7.507812 4.933594 7.109375 4.445312 7.109375 C 3.953125 7.109375 3.554688 7.507812 3.554688 8 "/>
<path style=" stroke:none;fill-rule:nonzero;fill:rgb(23.529412%,79.607843%,9.803922%);fill-opacity:1;" d="M 3.554688 4.445312 L 3.554688 4.453125 C 3.554688 4.945312 3.953125 5.34375 4.445312 5.34375 C 4.933594 5.34375 5.332031 4.945312 5.332031 4.453125 L 5.332031 4.445312 C 5.332031 3.953125 4.933594 3.554688 4.445312 3.554688 C 3.953125 3.554688 3.554688 3.953125 3.554688 4.445312 "/>
<path style=" stroke:none;fill-rule:nonzero;fill:rgb(23.529412%,79.607843%,9.803922%);fill-opacity:1;" d="M 10.667969 11.554688 L 10.667969 11.5625 C 10.667969 12.054688 11.066406 12.453125 11.554688 12.453125 C 12.046875 12.453125 12.445312 12.054688 12.445312 11.5625 L 12.445312 11.554688 C 12.445312 11.066406 12.046875 10.667969 11.554688 10.667969 C 11.066406 10.667969 10.667969 11.066406 10.667969 11.554688 "/>
<path style=" stroke:none;fill-rule:nonzero;fill:rgb(23.529412%,79.607843%,9.803922%);fill-opacity:1;" d="M 10.667969 8 L 10.667969 8.007812 C 10.667969 8.5 11.066406 8.898438 11.554688 8.898438 C 12.046875 8.898438 12.445312 8.5 12.445312 8.007812 L 12.445312 8 C 12.445312 7.507812 12.046875 7.109375 11.554688 7.109375 C 11.066406 7.109375 10.667969 7.507812 10.667969 8 "/>
<path style=" stroke:none;fill-rule:nonzero;fill:rgb(23.529412%,79.607843%,9.803922%);fill-opacity:1;" d="M 10.667969 4.445312 L 10.667969 4.453125 C 10.667969 4.945312 11.066406 5.34375 11.554688 5.34375 C 12.046875 5.34375 12.445312 4.945312 12.445312 4.453125 L 12.445312 4.445312 C 12.445312 3.953125 12.046875 3.554688 11.554688 3.554688 C 11.066406 3.554688 10.667969 3.953125 10.667969 4.445312 "/>
<path style=" stroke:none;fill-rule:nonzero;fill:rgb(23.529412%,79.607843%,9.803922%);fill-opacity:1;" d="M 7.109375 4.445312 L 7.109375 4.453125 C 7.109375 4.945312 7.507812 5.34375 8 5.34375 C 8.492188 5.34375 8.890625 4.945312 8.890625 4.453125 L 8.890625 4.445312 C 8.890625 3.953125 8.492188 3.554688 8 3.554688 C 7.507812 3.554688 7.109375 3.953125 7.109375 4.445312 "/>
<path style=" stroke:none;fill-rule:nonzero;fill:rgb(23.529412%,79.607843%,9.803922%);fill-opacity:1;" d="M 7.109375 11.554688 L 7.109375 11.5625 C 7.109375 12.054688 7.507812 12.453125 8 12.453125 C 8.492188 12.453125 8.890625 12.054688 8.890625 11.5625 L 8.890625 11.554688 C 8.890625 11.066406 8.492188 10.667969 8 10.667969 C 7.507812 10.667969 7.109375 11.066406 7.109375 11.554688 "/>
</g>
</svg>
