<?xml version="1.0" encoding="UTF-8"?>
<svg xmlns="http://www.w3.org/2000/svg" xmlns:xlink="http://www.w3.org/1999/xlink" width="16px" height="16px" viewBox="0 0 16 16" version="1.1">
<g id="surface1">
<path style=" stroke:none;fill-rule:nonzero;fill:rgb(15.686275%,96.862745%,16.862746%);fill-opacity:1;" d="M 2.269531 5.871094 L 0.492188 6.761719 C 0.191406 6.910156 0 7.21875 0 7.554688 C 0 7.894531 0.191406 8.199219 0.492188 8.351562 L 7.601562 11.90625 C 7.851562 12.03125 8.148438 12.03125 8.398438 11.90625 L 15.507812 8.351562 C 15.808594 8.199219 16 7.894531 16 7.554688 C 16 7.21875 15.808594 6.910156 15.507812 6.761719 L 13.730469 5.871094 C 13.292969 5.652344 12.757812 5.832031 12.539062 6.269531 C 12.320312 6.707031 12.496094 7.242188 12.9375 7.460938 L 13.125 7.554688 L 8 10.117188 L 2.875 7.554688 L 3.0625 7.460938 C 3.503906 7.242188 3.679688 6.707031 3.460938 6.269531 C 3.242188 5.832031 2.707031 5.652344 2.269531 5.871094 Z M 2.269531 5.871094 "/>
<path style=" stroke:none;fill-rule:nonzero;fill:rgb(15.686275%,96.862745%,16.862746%);fill-opacity:1;" d="M 0.492188 11.90625 L 7.601562 15.460938 C 7.851562 15.585938 8.148438 15.585938 8.398438 15.460938 L 15.507812 11.90625 C 15.949219 11.6875 16.125 11.152344 15.90625 10.714844 C 15.6875 10.273438 15.152344 10.097656 14.714844 10.316406 L 8 13.671875 L 1.285156 10.316406 C 0.847656 10.097656 0.3125 10.273438 0.09375 10.714844 C -0.125 11.152344 0.0507812 11.6875 0.492188 11.90625 Z M 0.492188 11.90625 "/>
<path style=" stroke:none;fill-rule:nonzero;fill:rgb(15.686275%,96.862745%,16.862746%);fill-opacity:1;" d="M 7.109375 1.332031 L 7.109375 7.554688 C 7.109375 8.046875 7.507812 8.445312 8 8.445312 C 8.492188 8.445312 8.890625 8.046875 8.890625 7.554688 L 8.890625 1.332031 C 8.890625 0.84375 8.492188 0.445312 8 0.445312 C 7.507812 0.445312 7.109375 0.84375 7.109375 1.332031 "/>
<path style=" stroke:none;fill-rule:nonzero;fill:rgb(15.686275%,96.862745%,16.862746%);fill-opacity:1;" d="M 10.039062 4.261719 L 8 6.296875 L 5.960938 4.261719 C 5.613281 3.914062 5.050781 3.914062 4.703125 4.261719 C 4.359375 4.609375 4.359375 5.171875 4.703125 5.519531 L 7.371094 8.183594 C 7.535156 8.351562 7.765625 8.445312 8 8.445312 C 8.234375 8.445312 8.460938 8.351562 8.628906 8.183594 L 11.292969 5.519531 C 11.640625 5.171875 11.640625 4.609375 11.292969 4.261719 C 10.949219 3.914062 10.386719 3.914062 10.039062 4.261719 Z M 10.039062 4.261719 "/>
</g>
</svg>
