<?xml version="1.0" encoding="UTF-8"?>
<svg xmlns="http://www.w3.org/2000/svg" xmlns:xlink="http://www.w3.org/1999/xlink" width="16px" height="16px" viewBox="0 0 16 16" version="1.1">
<g id="surface1">
<path style=" stroke:none;fill-rule:nonzero;fill:rgb(15.686275%,96.862745%,16.862746%);fill-opacity:1;" d="M 14.121094 10.453125 L 15.835938 11.308594 C 16.054688 11.421875 16.054688 11.734375 15.835938 11.84375 L 8.265625 15.628906 C 8.097656 15.710938 7.902344 15.710938 7.734375 15.628906 L 0.164062 11.84375 C 0.0195312 11.769531 -0.0429688 11.589844 0.03125 11.441406 L 0.164062 11.308594 L 1.882812 10.453125 L 7.199219 13.109375 C 7.703125 13.363281 8.296875 13.363281 8.800781 13.109375 L 14.121094 10.449219 Z M 7.734375 0.351562 C 7.902344 0.269531 8.097656 0.269531 8.265625 0.351562 L 15.835938 4.136719 C 15.984375 4.210938 16.042969 4.390625 15.964844 4.539062 L 15.835938 4.671875 L 8.265625 8.453125 C 8.097656 8.539062 7.902344 8.539062 7.734375 8.453125 L 0.164062 4.671875 C 0.0195312 4.597656 -0.0429688 4.417969 0.03125 4.269531 L 0.164062 4.136719 Z M 7.734375 0.351562 "/>
<path style=" stroke:none;fill-rule:nonzero;fill:rgb(15.686275%,96.862745%,16.862746%);fill-opacity:1;" d="M 14.121094 6.867188 L 15.835938 7.722656 C 16.054688 7.832031 16.054688 8.148438 15.835938 8.257812 L 8.265625 12.039062 C 8.097656 12.125 7.902344 12.125 7.734375 12.039062 L 0.164062 8.257812 C 0.0195312 8.183594 -0.0429688 8.003906 0.03125 7.855469 L 0.164062 7.722656 L 1.882812 6.863281 L 7.199219 9.523438 C 7.703125 9.777344 8.296875 9.777344 8.800781 9.523438 L 14.121094 6.863281 Z M 14.121094 6.867188 "/>
</g>
</svg>
